<?xml version="1.0" encoding="UTF-8" standalone="no"?>
<!-- Created with Inkscape (http://www.inkscape.org/) -->

<svg
   version="1.1"
   id="svg1"
   width="852.93555"
   height="391.20425"
   viewBox="0 0 852.93555 391.20426"
   sodipodi:docname="e8_e11_zoomed_spindle.svg"
   inkscape:version="1.3 (0e150ed6c4, 2023-07-21)"
   xmlns:inkscape="http://www.inkscape.org/namespaces/inkscape"
   xmlns:sodipodi="http://sodipodi.sourceforge.net/DTD/sodipodi-0.dtd"
   xmlns="http://www.w3.org/2000/svg"
   xmlns:svg="http://www.w3.org/2000/svg">
  <defs
     id="defs1">
    <clipPath
       clipPathUnits="userSpaceOnUse"
       id="clipPath3">
      <path
         d="M 0,199.584 H 669.6 V 332.64 H 0 Z"
         id="path3" />
    </clipPath>
    <clipPath
       clipPathUnits="userSpaceOnUse"
       id="clipPath5">
      <path
         d="M 0,199.584 H 669.6 V 332.64 H 0 Z"
         id="path5" />
    </clipPath>
    <clipPath
       clipPathUnits="userSpaceOnUse"
       id="clipPath7">
      <path
         d="M 0,0 H 669.6 V 133.056 H 0 Z"
         id="path7" />
    </clipPath>
    <clipPath
       clipPathUnits="userSpaceOnUse"
       id="clipPath9">
      <path
         d="M 0,0 H 669.6 V 133.056 H 0 Z"
         id="path9" />
    </clipPath>
  </defs>
  <sodipodi:namedview
     id="namedview1"
     pagecolor="#ffffff"
     bordercolor="#999999"
     borderopacity="1"
     inkscape:showpageshadow="2"
     inkscape:pageopacity="0"
     inkscape:pagecheckerboard="0"
     inkscape:deskcolor="#d1d1d1"
     inkscape:zoom="0.7848822"
     inkscape:cx="273.92646"
     inkscape:cy="12.103727"
     inkscape:window-width="2560"
     inkscape:window-height="1369"
     inkscape:window-x="-8"
     inkscape:window-y="701"
     inkscape:window-maximized="1"
     inkscape:current-layer="g1">
    <inkscape:page
       x="0"
       y="0"
       inkscape:label="1"
       id="page1"
       width="852.93555"
       height="391.20425"
       margin="0"
       bleed="0" />
  </sodipodi:namedview>
  <g
     id="g1"
     inkscape:groupmode="layer"
     inkscape:label="1"
     transform="translate(-1.058707,-50.240781)">
    <g
       id="g735">
      <path
         id="path2"
         d="m 30.436364,249.8958 0.511106,-6.98544 0.511106,-5.32224 0.511106,-3.90852 1.022212,-8.98128 1.022212,-6.15384 0.511106,0.58212 0.511106,-1.91268 0.511106,-3.3264 0.511106,0.58212 0.511106,-0.66528 0.511106,-1.74636 0.511106,-1.16424 0.511106,-2.74428 0.511106,-1.41372 1.022212,-1.91268 0.511106,1.82952 0.511106,0.49896 1.533318,-3.99168 0.511106,-0.66528 0.511106,1.74636 0.511106,8.56548 1.022212,26.1954 0.511106,6.40332 0.511106,1.6632 0.511106,-2.16216 0.511106,-4.82328 1.022212,-15.55092 0.511106,-5.65488 0.511106,-1.91268 0.511106,3.49272 1.022213,9.9792 0.511106,4.24116 0.511106,2.99376 1.022212,9.64656 0.511106,2.99376 1.022212,12.8898 1.022212,7.40124 0.511106,1.58004 0.511106,-0.24948 0.511106,0.74844 0.511106,-0.49896 0.511106,-1.49688 0.511106,2.99376 0.511106,4.9896 0.511106,1.82952 0.511106,3.40956 0.511106,5.32224 0.511106,1.16424 1.022212,-5.98752 0.511106,-2.9106 0.511106,-6.48648 0.511106,-8.316 0.511106,-0.4158 0.511106,2.99376 0.511106,-0.16632 0.511106,1.08108 0.511106,-0.99792 0.511106,-3.3264 0.511106,0.91476 0.511106,1.16424 0.511106,-1.99584 0.511106,-0.33264 1.533318,6.56964 0.511106,3.07692 0.511106,-1.16424 0.511106,-2.57796 0.511106,0.66528 1.022212,2.82744 0.511107,0.66528 1.022212,-4.5738 0.511106,-0.24948 0.511106,0.99792 0.511106,2.57796 0.511106,0.24948 0.511106,-0.24948 0.511106,2.4948 0.511106,1.08108 0.511106,3.07692 0.511106,6.73596 0.511106,3.7422 0.511106,2.16216 0.511106,-0.49896 0.511106,-7.56756 0.511106,-5.65488 0.511106,-0.16632 0.511106,0.49896 0.511106,4.9896 0.511106,7.0686 1.022212,9.39708 0.511106,1.82952 0.511106,-2.82744 0.511106,-1.33056 0.511106,-2.57796 0.511106,-3.99168 0.511106,-0.99792 0.511106,1.41372 0.511106,0.0832 0.511106,-3.49272 0.511106,-1.6632 0.511106,1.6632 0.511106,-0.24948 1.022212,2.41164 0.511106,-2.16216 0.511106,0.58212 0.511106,1.74636 0.511106,0.0832 0.511106,0.33264 0.511106,-1.33056 0.511106,-0.33264 0.511107,0.16632 0.511106,-1.99584 0.511106,-0.58212 0.511106,0.49896 0.511106,0.66528 0.511106,1.99584 0.511106,0.66528 0.511106,-0.33264 h 0.511106 l 0.511107,-0.58212 0.51111,-1.16424 0.5111,-1.82952 0.51111,-0.49896 0.5111,1.16424 0.51111,-0.24948 0.51111,-0.91476 0.5111,1.58004 0.51111,0.4158 0.5111,-4.82328 0.51111,-2.9106 0.51111,1.74636 0.5111,-0.0832 0.51111,0.33264 0.5111,2.9106 0.51111,1.58004 1.53332,-2.16216 0.5111,-1.33056 0.51111,-0.4158 0.51111,0.16632 0.5111,-3.07692 0.51111,-1.74636 0.5111,0.49896 0.51111,-1.99584 0.51111,0.99792 0.5111,2.66112 0.51111,0.49896 1.02221,5.32224 0.5111,1.16424 0.51111,1.82952 0.51111,-0.4158 0.5111,0.33264 0.51111,2.57796 1.53332,5.57172 0.5111,1.6632 0.51111,-0.33264 0.51111,-0.91476 0.5111,1.16424 0.51111,0.8316 0.5111,0.58212 1.02222,-2.16216 0.5111,1.33056 0.51111,-0.8316 0.5111,-0.0832 0.51111,1.74636 0.51111,-1.58004 0.5111,-0.8316 1.02221,-1.33056 0.51111,0.66528 0.51111,-2.079 0.5111,0.16632 0.51111,2.32848 1.02221,-6.56964 0.51111,0.4158 0.5111,-0.4158 0.51111,-3.82536 0.5111,-2.24532 0.51111,1.58004 0.51111,-1.08108 h 0.5111 l 0.51111,0.99792 0.5111,-4.82328 0.51111,-1.74636 0.51111,3.16008 0.5111,2.32848 0.51111,2.9106 0.5111,-0.33264 0.51111,-2.57796 0.51111,-0.24948 0.5111,-0.49896 0.51111,-0.33264 0.5111,1.08108 0.51111,1.82952 0.51111,0.4158 0.5111,-1.41372 0.51111,0.0832 0.5111,-1.58004 0.51111,-2.9106 1.02221,5.90436 0.51111,-1.41372 0.5111,-0.49896 0.51111,-0.0832 0.51111,-1.33056 0.5111,-0.58212 0.51111,0.0832 0.5111,-0.16632 0.51111,-1.74636 0.51111,-3.07692 0.5111,-1.49688 1.02221,0.74844 0.51111,0.0832 1.02221,-0.33264 0.51111,-0.8316 0.5111,-0.4158 0.51111,0.74844 1.02221,-1.16424 0.51111,-1.41372 0.51111,-3.7422 0.5111,1.16424 0.51111,2.66112 0.5111,-3.07692 0.51111,-1.91268 0.5111,0.58212 1.02222,-0.74844 2.04442,-12.80664 0.51111,-3.3264 0.5111,0.0832 0.51111,0.4158 0.5111,-0.0832 0.51111,-0.49896 0.51111,0.0832 0.5111,-0.0832 0.51111,-0.91476 0.51111,1.49688 0.5111,0.66528 0.51111,-2.99376 0.5111,-0.33264 0.51111,1.49688 1.02221,-3.65904 0.51111,1.91268 0.5111,2.82744 0.51111,-1.74636 0.51111,-3.40956 0.5111,-0.91476 0.51111,-1.16424 0.5111,-0.33264 0.51111,1.74636 0.51111,0.8316 0.5111,-0.91476 0.51111,-1.58004 0.5111,0.66528 1.02222,5.07276 0.5111,3.57588 0.51111,0.33264 0.5111,-1.16424 1.02222,8.98128 0.5111,1.58004 0.51111,3.07692 0.5111,1.99584 0.51111,0.0832 0.51111,-0.99792 0.5111,-2.99376 0.51111,-0.8316 0.5111,1.2474 1.02222,-1.41372 0.5111,2.32848 0.51111,6.73596 0.5111,9.06444 0.51111,5.4054 1.02221,5.98752 0.51111,0.49896 1.02221,-2.57796 2.04442,-16.46568 0.51111,-3.49272 1.02221,-8.64864 0.51111,-1.6632 1.02221,-4.65696 0.51111,2.24532 h 0.5111 l 0.51111,-3.07692 0.5111,-0.33264 0.51111,0.0832 0.51111,-0.24948 0.5111,0.33264 0.51111,-0.91476 1.02221,-1.08108 0.51111,-1.08108 0.5111,1.6632 0.51111,3.49272 1.53332,6.40332 0.5111,1.74636 1.02221,4.32432 0.51111,-0.8316 0.51111,0.74844 0.5111,2.24532 1.02221,0.49896 h 0.51111 l 0.51111,0.4158 0.5111,2.079 0.51111,0.49896 0.5111,-0.0832 0.51111,-0.24948 0.51111,-1.58004 h 0.5111 l 0.51111,0.74844 0.51111,-0.4158 1.02221,-1.99584 0.5111,1.58004 0.51111,-0.33264 1.02221,-7.31808 0.51111,-3.07692 0.5111,-1.16424 0.51111,1.33056 0.51111,-0.58212 0.5111,0.58212 0.51111,1.99584 0.5111,-1.16424 0.51111,-3.07692 0.51111,-2.32848 0.5111,0.91476 0.51111,0.49896 0.5111,-3.07692 0.51111,-0.0832 0.51111,2.66112 0.5111,0.0832 0.51111,0.74844 1.02221,4.90644 0.51111,1.08108 0.5111,-0.24948 h 0.51111 l 0.5111,1.08108 1.02222,-0.4158 0.5111,0.74844 0.51111,-1.91268 0.5111,-1.2474 0.51111,3.57588 0.51111,1.41372 0.5111,0.58212 0.51111,2.82744 0.5111,-0.49896 0.51111,0.66528 0.51111,1.74636 0.5111,-3.07692 0.51111,-0.66528 0.5111,-0.0832 0.51111,-3.90852 0.51111,0.0832 0.5111,1.74636 1.02221,-3.07692 0.51111,-0.33264 0.51111,0.24948 0.5111,-0.24948 0.51111,-0.0832 0.5111,0.8316 0.51111,0.0832 0.51111,-1.16424 0.5111,-0.24948 0.51111,1.91268 0.5111,0.33264 0.51111,-0.66528 0.51111,1.82952 0.5111,-0.91476 0.51111,-3.07692 0.5111,-0.66528 0.51111,-0.91476 0.51111,2.24532 0.5111,2.9106 0.51111,-1.99584 0.5111,0.33264 0.51111,1.99584 0.51111,-0.49896 0.5111,0.8316 0.51111,0.4158 0.5111,-0.4158 0.51111,-0.91476 0.51111,-1.49688 0.5111,0.16632 0.51111,-1.58004 0.5111,-0.33264 0.51111,3.40956 0.51111,0.16632 0.5111,0.66528 0.51111,1.91268 0.5111,-0.91476 0.51111,-0.0832 0.51111,0.16632 0.5111,-0.91476 1.02222,-2.16216 0.5111,-0.74844 1.02221,-6.40332 0.51111,-0.33264 0.51111,-1.91268 0.5111,-0.91476 1.02221,-3.07692 0.51111,1.08108 0.51111,-2.32848 0.5111,-3.3264 0.51111,0.33264 0.5111,-0.16632 0.51111,-1.2474 0.51111,-2.079 0.5111,-1.16424 0.51111,0.99792 0.5111,-0.8316 0.51111,0.8316 0.51111,4.40748 0.5111,0.66528 0.51111,-0.91476 0.5111,1.41372 0.51111,-1.58004 0.51111,-2.74428 0.5111,-0.66528 0.51111,0.0832 0.5111,2.4948 0.51111,0.91476 0.51111,-1.08108 0.5111,1.6632 1.02221,0.4158 0.51111,2.079 0.51111,-0.74844 0.5111,1.58004 0.51111,2.99376 0.5111,-0.0832 0.51111,0.4158 1.02221,-0.24948 0.51111,0.91476 0.5111,0.16632 0.51111,1.49688 0.51111,0.49896 h 0.5111 l 0.51111,1.91268 0.5111,-0.16632 0.51111,0.16632 0.51111,1.41372 0.5111,0.58212 1.02221,6.56964 0.51111,-1.41372 0.51111,-0.66528 0.5111,-0.33264 0.51111,-1.08108 0.5111,0.33264 0.51111,0.8316 0.51111,1.2474 0.5111,0.4158 0.51111,-0.58212 0.51111,1.58004 0.5111,0.24948 0.51111,-1.74636 1.02221,4.90644 0.5111,-1.74636 0.51111,-0.24948 0.51111,1.41372 1.02221,-3.40956 0.51111,0.16632 1.02221,-0.4158 1.02221,-1.33056 0.5111,0.16632 0.51111,-0.99792 0.51111,-0.33264 0.5111,2.4948 0.51111,0.99792 0.5111,-1.6632 0.51111,-0.24948 0.51111,2.32848 0.5111,3.65904 0.51111,1.6632 0.51111,0.16632 0.5111,0.58212 1.02221,-2.4948 0.51111,-0.58212 0.51111,-3.7422 0.5111,-1.6632 0.51111,1.58004 0.5111,0.4158 0.51111,0.8316 0.51111,0.58212 0.5111,-0.4158 0.51111,0.33264 0.5111,0.58212 h 0.51111 l 1.02221,-5.48856 0.51111,0.0832 0.5111,-1.16424 0.51111,-0.66528 0.51111,0.8316 0.5111,-2.24532 0.51111,-1.08108 0.5111,0.74844 0.51111,-1.2474 0.51111,-0.33264 0.5111,0.49896 0.51111,0.8316 0.5111,1.58004 h 0.51111 l 0.51111,-2.24532 0.5111,-3.3264 0.51111,-0.49896 0.5111,2.24532 0.51111,0.49896 0.51111,1.2474 0.5111,1.58004 0.51111,0.8316 0.5111,3.65904 0.51111,0.99792 0.51111,-1.82952 0.5111,0.16632 0.51111,-2.41164 0.5111,-1.6632 0.51111,0.91476 0.51111,-2.41164 0.5111,-3.07692 1.02222,-3.40956 0.5111,-0.4158 1.02221,-0.16632 1.02221,-1.16424 0.51111,-0.16632 0.51111,-2.24532 0.5111,-0.74844 1.02221,4.158 0.51111,1.2474 0.51111,-1.58004 0.5111,-2.24532 0.51111,-1.41372 0.5111,-2.24532 0.51111,0.58212 0.51111,-0.33264 0.5111,-2.9106 0.51111,1.49688 0.5111,2.079 0.51111,-0.4158 0.51111,1.16424 0.5111,-0.16632 1.02221,-5.73804 0.51111,-0.91476 0.51111,-1.58004 0.5111,-4.49064 0.51111,-1.58004 0.5111,1.16424 1.02222,-3.99168 0.5111,-0.4158 0.51111,-0.24948 1.02221,3.3264 0.51111,0.58212 0.5111,1.58004 0.51111,3.40956 0.51111,5.48856 0.5111,3.16008 0.51111,2.24532 0.5111,5.65488 0.51111,2.4948 0.51111,-1.99584 2.04442,-4.9896 0.51111,-2.079 0.5111,-0.33264 0.51111,-0.49896 0.5111,-1.74636 0.51111,0.49896 1.53332,4.49064 0.5111,0.91476 h 0.51111 l 0.51111,-2.82744 0.5111,-5.48856 0.51111,-3.16008 0.5111,-0.74844 0.51111,0.58212 0.51111,1.41372 0.5111,-2.4948 0.51111,-5.48856 0.5111,-1.6632 0.51111,2.41164 0.51111,0.0832 0.5111,-1.82952 1.02221,3.49272 0.51111,0.49896 0.51111,3.82536 0.5111,0.24948 0.51111,-3.90852 0.5111,-0.58212 0.51111,-1.91268 0.51111,-2.41164 0.5111,1.16424 0.51111,0.58212 0.5111,-0.58212 1.02222,-3.57588 0.5111,0.4158 0.51111,0.99792 1.02221,3.65904 0.51111,-0.74844 0.5111,-1.16424 1.02221,4.24116 0.51111,-0.99792 0.51111,-1.33056 1.02221,-5.48856 1.02221,5.73804 1.02221,-1.08108 0.51111,-7.73388 0.5111,-5.73804 0.51111,6.73596 0.51111,4.74012 0.5111,-0.99792 0.51111,1.2474 0.5111,0.8316 0.51111,0.58212 1.02221,5.8212 0.51111,-0.16632 1.53332,-12.80664 0.5111,-3.7422 0.51111,-0.91476 0.5111,0.16632 0.51111,-2.24532 0.51111,-0.24948 1.02221,8.316 1.02221,7.4844 0.51111,0.91476 0.5111,-0.99792 0.51111,-1.41372 0.5111,-5.4054 0.51111,-4.158 0.51111,-0.91476 1.02221,-9.23076 0.51111,-2.079 0.5111,-3.24324 0.51111,0.49896 1.02221,6.15384 2.55553,36.42408 1.53332,10.64448 0.5111,-1.41372 1.02222,-10.8108 0.5111,-4.74012 0.51111,-6.90228 0.5111,-2.82744 0.51111,2.41164 0.51111,0.58212 0.5111,-0.66528 0.51111,4.65696 1.53332,22.4532 0.5111,4.9896 0.51111,1.41372 0.5111,0.74844 0.51111,1.16424 0.51111,-0.33264 1.02221,-11.72556 1.53332,-8.39916 0.5111,-2.079 0.51111,0.0832 0.5111,6.40332 0.51111,4.74012 0.51111,-0.16632 0.5111,0.8316 0.51111,2.74428 0.5111,5.4054 0.51111,7.81704 0.51111,5.32224 0.5111,0.91476 1.02221,2.24532 0.51111,-3.57588 0.51111,-5.48856 0.5111,-4.07484 1.02221,-4.07484 0.51111,-6.15384 0.51111,-4.158 0.5111,0.16632 0.51111,-1.49688 0.5111,-0.74844 0.51111,1.2474 1.02221,0.49896 0.51111,1.99584 1.02221,8.14968 0.51111,6.40332 0.5111,4.90644 0.51111,0.4158 1.02221,5.90436 0.51111,-3.90852 1.02221,-4.49064 0.51111,-5.23908 0.5111,-2.41164 0.51111,-1.49688 0.5111,-3.82536 0.51111,-1.74636 0.5111,1.91268 0.51111,0.58212 0.51111,-2.32848 0.5111,0.66528 0.51111,5.07276 1.02221,16.04988 0.51111,4.40748 0.5111,-1.74636 0.51111,-3.49272 0.51111,-2.4948 1.02221,-3.49272 0.5111,-3.3264 1.02222,-9.06444 1.02221,-11.47608 0.5111,-0.66528 0.51111,2.57796 0.51111,3.99168 0.5111,5.4054 0.51111,4.158 1.02221,11.47608 0.51111,0.8316 0.5111,-1.41372 0.51111,3.3264 0.5111,8.23284 0.51111,6.15384 0.51111,-3.24324 0.5111,-7.31808 1.02221,-8.7318 1.02222,-14.22036 0.5111,-1.74636 0.51111,-0.16632 0.5111,2.57796 0.51111,8.39916 0.51111,5.23908 0.5111,1.58004 0.51111,5.57172 0.5111,4.158 0.51111,1.6632 1.53332,11.97504 0.5111,6.07068 0.51111,3.57588 0.51111,-2.41164 0.5111,-4.49064 0.51111,-2.32848 0.5111,-3.16008 0.51111,-4.9896 0.51111,-2.9106 0.5111,0.24948 0.51111,1.16424 0.5111,-0.24948 0.51111,-1.33056 0.51111,-2.4948 0.5111,-3.16008 0.51111,0.16632 0.5111,3.57588 1.53332,14.1372 0.51111,2.9106 0.5111,0.49896 0.51111,-1.99584 0.51111,-2.4948 0.5111,-5.48856 0.51111,-7.23492 1.02221,-9.64656 0.51111,-3.90852 0.5111,-2.82744 0.51111,-2.079 0.51111,2.32848 0.5111,3.65904 0.51111,0.58212 0.5111,2.82744 1.53332,17.54676 0.51111,5.23908 0.5111,3.49272 0.51111,2.41164 0.5111,-0.58212 0.51111,-3.16008 0.51111,-1.82952 0.5111,-2.66112 0.51111,-3.7422 0.5111,-1.91268 0.51111,-1.2474 0.51111,0.24948 0.5111,0.66528 0.51111,-0.24948 0.51111,1.08108 0.5111,-0.16632 0.51111,-1.6632 0.5111,1.2474 1.02222,6.81912 0.5111,0.16632 0.51111,-0.4158 0.5111,0.33264 1.02222,-4.49064 0.5111,-1.49688 1.02221,-7.98336 1.02222,-6.32016 0.5111,0.33264 0.51111,0.16632 0.5111,-1.74636 0.51111,-1.16424 1.02221,3.99168 0.51111,-1.91268 0.5111,-1.41372 0.51111,1.16424 0.51111,0.74844 0.5111,0.99792 0.51111,-0.33264 0.5111,-1.91268 0.51111,-2.74428 0.51111,-3.90852 2.04442,-11.72556 0.51111,-3.57588 0.5111,-1.2474 h 0.51111 l 0.5111,1.99584 0.51111,4.5738 0.51111,1.6632 0.5111,-0.24948 1.02222,3.49272 0.5111,1.6632 0.51111,-0.66528 0.5111,-0.99792 0.51111,1.33056 0.5111,-1.33056 0.51111,-4.158 0.51111,-1.82952 0.5111,-0.99792 0.51111,-3.3264 1.02221,-8.7318 0.51111,-2.82744 0.5111,-1.16424 0.51111,0.58212 0.5111,-0.58212 0.51111,-0.91476 0.51111,1.41372 0.5111,2.32848 0.51111,1.74636 0.5111,1.2474 0.51111,3.24324 0.51111,5.07276 0.5111,2.16216 0.51111,0.0832 0.5111,0.58212 0.51111,-0.49896 0.51111,-1.16424 0.5111,-2.32848 0.51111,-2.9106 1.53332,-5.15592 0.5111,-0.33264 1.02222,-5.8212 0.5111,-0.8316 1.02221,2.66112 0.51111,0.49896 0.5111,1.99584 0.51111,2.99376 0.51111,-0.99792 0.5111,-2.66112 0.51111,0.24948 0.51111,-0.16632 0.5111,-0.91476 0.51111,1.99584 0.5111,0.58212 0.51111,-1.99584 0.51111,-0.91476 1.02221,-6.07068 1.02221,-1.33056 0.51111,0.16632 0.5111,-1.08108 0.51111,-1.6632 0.5111,1.2474 1.02222,1.91268 0.5111,2.079 0.51111,1.08108 0.5111,2.57796 0.51111,1.74636 0.51111,-0.49896 0.5111,-0.0832 0.51111,-0.4158 0.5111,0.0832 0.51111,0.74844 1.02221,-2.079 0.51111,-0.16632 0.5111,0.0832 1.02222,5.57172 0.5111,-0.58212 0.51111,-1.82952 0.5111,0.66528 1.02222,2.82744 0.5111,1.08108 0.51111,0.24948 0.5111,1.2474 0.51111,0.49896 0.51111,-1.74636 0.5111,-0.24948 0.51111,1.41372 1.02221,0.58212 0.51111,1.6632 0.5111,0.74844 1.02221,-1.82952 1.02222,-1.99584 0.5111,-0.49896 1.53332,-2.82744 0.51111,-0.58212 0.5111,1.33056 0.51111,-0.4158 0.51111,-1.2474 0.5111,1.91268 0.51111,0.49896 0.5111,-1.16424 0.51111,1.99584 0.5111,1.49688 0.51111,-1.08108 0.51111,-1.6632 0.5111,-1.2474 0.51111,1.16424 0.5111,-0.0832 0.51111,-2.24532 0.51111,-0.16632 1.02221,-0.58212 0.51111,1.6632 0.5111,-0.91476 0.51111,-1.6632 0.5111,-0.24948 h 0.51111 l 0.5111,-0.8316 0.51111,-2.24532 0.51111,0.49896 0.5111,-0.16632 0.51111,-2.41164 0.51111,2.41164 0.5111,0.58212 0.51111,-3.82536 1.53331,-1.99584 0.51111,0.49896 0.51111,-1.16424 0.5111,1.49688 0.51111,2.66112 0.51111,1.91268 0.5111,3.24324 0.51111,0.91476 0.5111,-0.33264 0.51111,0.91476 1.02221,0.74844 0.51111,1.08108 0.5111,1.82952 0.51111,0.49896 0.51111,0.66528 0.5111,4.24116 0.51111,1.49688 0.5111,-1.82952 0.51111,-0.0832 0.51111,-1.58004 0.5111,-1.08108 0.51111,1.16424 0.5111,0.0832 0.51111,1.41372 0.51111,-0.74844 0.5111,-2.079 0.51111,3.24324 0.5111,1.2474 0.51111,-1.16424 0.51111,1.49688 0.5111,-0.24948 1.02221,-0.8316 0.51111,-1.41372 0.51111,0.58212 0.5111,-1.82952 0.51111,-2.74428 0.5111,-0.8316 0.51111,-1.41372 0.51111,0.58212 0.5111,-2.079 0.51111,-3.99168 0.5111,1.74636 0.51111,-0.24948 1.53332,-10.14552 0.51111,0.74844 0.5111,0.16632 0.51111,-1.2474 0.5111,1.99584 1.02221,-2.66112 0.51111,0.8316 0.51111,-0.99792 1.02221,0.4158 1.02221,2.16216 0.51111,-1.82952 0.5111,1.41372 0.51111,1.91268 0.5111,-0.0832 0.51111,0.66528 0.51111,-1.74636 0.5111,0.16632 0.51111,1.49688 0.5111,-0.58212 1.02222,7.23492 1.02221,2.66112 0.5111,-2.079 1.02222,-4.82328 0.5111,-0.74844 0.51111,1.49688 0.51111,0.91476 0.5111,1.82952 0.51111,0.49896 0.5111,-0.66528 1.02221,3.3264 0.51111,2.57796 0.51111,0.8316 0.5111,-1.74636 0.51111,0.4158 0.51111,-0.66528 h 0.5111 l 0.51111,1.82952 0.5111,0.16632 0.51111,1.16424 0.51111,0.4158 0.5111,0.66528 0.51111,1.58004 0.5111,-2.079 0.51111,-0.91476 0.51111,0.0832 0.5111,-0.99792 0.51111,1.74636 1.02221,1.16424 0.51111,1.58004 0.5111,-0.24948 0.51111,0.74844 0.5111,-0.66528 0.51111,-1.16424 0.51111,1.58004 0.5111,-0.33264 0.51111,0.0832 0.5111,1.82952 1.02222,1.6632 0.5111,-0.49896 1.02221,0.16632 0.51111,-0.58212 0.51111,2.57796 0.5111,0.58212 0.51111,-0.0832 0.5111,4.158 0.51111,1.33056 0.51111,0.24948 0.5111,0.74844 0.51111,-3.40956 0.5111,-1.74636 h 0.51111 l 0.51111,-0.91476 v 0"
         style="fill:none;stroke:#000000;stroke-width:1.5;stroke-linecap:square;stroke-linejoin:round;stroke-miterlimit:10;stroke-dasharray:none;stroke-opacity:0.132124"
         transform="matrix(1.3333333,0,0,-1.3333333,0,479.90302)"
         clip-path="url(#clipPath3)" />
      <path
         id="path4"
         d="m 331.98892,258.46128 0.5111,-2.24532 0.51111,-1.41372 0.5111,-2.24532 0.51111,0.58212 0.51111,-0.33264 0.5111,-2.9106 0.51111,1.49688 0.5111,2.079 0.51111,-0.4158 0.51111,1.16424 0.5111,-0.16632 1.02221,-5.73804 0.51111,-0.91476 0.51111,-1.58004 0.5111,-4.49064 0.51111,-1.58004 0.5111,1.16424 1.02222,-3.99168 0.5111,-0.4158 0.51111,-0.24948 1.02221,3.3264 0.51111,0.58212 0.5111,1.58004 0.51111,3.40956 0.51111,5.48856 0.5111,3.16008 0.51111,2.24532 0.5111,5.65488 0.51111,2.4948 0.51111,-1.99584 2.04442,-4.9896 0.51111,-2.079 0.5111,-0.33264 0.51111,-0.49896 0.5111,-1.74636 0.51111,0.49896 1.53332,4.49064 0.5111,0.91476 h 0.51111 l 0.51111,-2.82744 0.5111,-5.48856 0.51111,-3.16008 0.5111,-0.74844 0.51111,0.58212 0.51111,1.41372 0.5111,-2.4948 0.51111,-5.48856 0.5111,-1.6632 0.51111,2.41164 0.51111,0.0832 0.5111,-1.82952 1.02221,3.49272 0.51111,0.49896 0.51111,3.82536 0.5111,0.24948 0.51111,-3.90852 0.5111,-0.58212 0.51111,-1.91268 0.51111,-2.41164 0.5111,1.16424 0.51111,0.58212 0.5111,-0.58212 1.02222,-3.57588 0.5111,0.4158 0.51111,0.99792 1.02221,3.65904 0.51111,-0.74844 0.5111,-1.16424 1.02221,4.24116 0.51111,-0.99792 0.51111,-1.33056 1.02221,-5.48856 1.02221,5.73804 1.02221,-1.08108 0.51111,-7.73388 0.5111,-5.73804 0.51111,6.73596 0.51111,4.74012 0.5111,-0.99792 0.51111,1.2474 0.5111,0.8316 0.51111,0.58212 1.02221,5.8212 0.51111,-0.16632 1.53332,-12.80664 0.5111,-3.7422 0.51111,-0.91476 0.5111,0.16632 0.51111,-2.24532 0.51111,-0.24948 1.02221,8.316 1.02221,7.4844 0.51111,0.91476 0.5111,-0.99792 0.51111,-1.41372 0.5111,-5.4054 0.51111,-4.158 0.51111,-0.91476 1.02221,-9.23076 0.51111,-2.079 0.5111,-3.24324 0.51111,0.49896 1.02221,6.15384 2.55553,36.42408 1.53332,10.64448 0.5111,-1.41372 1.02222,-10.8108 0.5111,-4.74012 0.51111,-6.90228 0.5111,-2.82744 0.51111,2.41164 0.51111,0.58212 0.5111,-0.66528 0.51111,4.65696 1.53332,22.4532 0.5111,4.9896 0.51111,1.41372 0.5111,0.74844 0.51111,1.16424 0.51111,-0.33264 1.02221,-11.72556 1.53332,-8.39916 0.5111,-2.079 0.51111,0.0832 0.5111,6.40332 0.51111,4.74012 0.51111,-0.16632 0.5111,0.8316 0.51111,2.74428 0.5111,5.4054 0.51111,7.81704 0.51111,5.32224 0.5111,0.91476 1.02221,2.24532 0.51111,-3.57588 0.51111,-5.48856 0.5111,-4.07484 1.02221,-4.07484 0.51111,-6.15384 0.51111,-4.158 0.5111,0.16632 0.51111,-1.49688 0.5111,-0.74844 0.51111,1.2474 1.02221,0.49896 0.51111,1.99584 1.02221,8.14968 0.51111,6.40332 0.5111,4.90644 0.51111,0.4158 1.02221,5.90436 0.51111,-3.90852 1.02221,-4.49064 0.51111,-5.23908 0.5111,-2.41164 0.51111,-1.49688 0.5111,-3.82536 0.51111,-1.74636 0.5111,1.91268 0.51111,0.58212 0.51111,-2.32848 0.5111,0.66528 0.51111,5.07276 1.02221,16.04988 0.51111,4.40748 0.5111,-1.74636 0.51111,-3.49272 0.51111,-2.4948 1.02221,-3.49272 0.5111,-3.3264 1.02222,-9.06444 1.02221,-11.47608 0.5111,-0.66528 0.51111,2.57796 0.51111,3.99168 0.5111,5.4054 0.51111,4.158 1.02221,11.47608 0.51111,0.8316 0.5111,-1.41372 0.51111,3.3264 0.5111,8.23284 0.51111,6.15384 0.51111,-3.24324 0.5111,-7.31808 1.02221,-8.7318 1.02222,-14.22036 0.5111,-1.74636 0.51111,-0.16632 0.5111,2.57796 0.51111,8.39916 0.51111,5.23908 0.5111,1.58004 0.51111,5.57172 0.5111,4.158 0.51111,1.6632 1.53332,11.97504 0.5111,6.07068 0.51111,3.57588 0.51111,-2.41164 0.5111,-4.49064 0.51111,-2.32848 0.5111,-3.16008 0.51111,-4.9896 0.51111,-2.9106 0.5111,0.24948 0.51111,1.16424 0.5111,-0.24948 0.51111,-1.33056 0.51111,-2.4948 0.5111,-3.16008 0.51111,0.16632 0.5111,3.57588 1.53332,14.1372 0.51111,2.9106 0.5111,0.49896 0.51111,-1.99584 0.51111,-2.4948 0.5111,-5.48856 0.51111,-7.23492 1.02221,-9.64656 0.51111,-3.90852 0.5111,-2.82744 0.51111,-2.079 0.51111,2.32848 0.5111,3.65904 0.51111,0.58212 0.5111,2.82744 1.53332,17.54676 0.51111,5.23908 0.5111,3.49272 0.51111,2.41164 0.5111,-0.58212 0.51111,-3.16008 0.51111,-1.82952 0.5111,-2.66112 0.51111,-3.7422 0.5111,-1.91268 0.51111,-1.2474 0.51111,0.24948 0.5111,0.66528 0.51111,-0.24948 0.51111,1.08108 0.5111,-0.16632 0.51111,-1.6632 0.5111,1.2474 1.02222,6.81912 0.5111,0.16632 0.51111,-0.4158 0.5111,0.33264 1.02222,-4.49064 0.5111,-1.49688 1.02221,-7.98336 1.02222,-6.32016 0.5111,0.33264 0.51111,0.16632 0.5111,-1.74636 0.51111,-1.16424 1.02221,3.99168 0.51111,-1.91268 0.5111,-1.41372 0.51111,1.16424 0.51111,0.74844 0.5111,0.99792 0.51111,-0.33264 0.5111,-1.91268 0.51111,-2.74428 0.51111,-3.90852 2.04442,-11.72556 0.51111,-3.57588 0.5111,-1.2474 h 0.51111 l 0.5111,1.99584 0.51111,4.5738 0.51111,1.6632 0.5111,-0.24948 1.02222,3.49272 0.5111,1.6632 v 0"
         style="fill:none;stroke:#000000;stroke-width:2;stroke-linecap:square;stroke-linejoin:round;stroke-miterlimit:10;stroke-dasharray:none;stroke-opacity:1"
         transform="matrix(1.3333333,0,0,-1.3333333,0,479.90302)"
         clip-path="url(#clipPath5)" />
    </g>
    <g
       id="g737">
      <path
         id="path6"
         d="m 30.436364,75.84192 1.380334,-0.4158 1.380334,0.33264 1.380333,0.58212 h 1.380334 l 1.380334,-2.57796 1.380334,-2.9106 1.380334,0.08316 1.380334,-1.16424 1.380334,-0.66528 1.380334,0.8316 1.380334,-2.24532 1.380334,-1.08108 1.380334,0.74844 1.380334,-1.2474 1.380334,-0.33264 1.380334,0.49896 1.380334,0.8316 1.380334,1.58004 h 1.380334 l 1.380334,-2.24532 1.380334,-3.3264 1.380334,-0.49896 1.380334,2.24532 1.380333,0.49896 1.380334,1.2474 1.380334,1.58004 1.380334,0.8316 1.380334,3.65904 1.380334,0.99792 1.380334,-1.82952 1.380334,0.16632 1.380334,-2.41164 1.380334,-1.6632 1.380334,0.91476 1.380334,-2.41164 1.380334,-3.07692 2.760668,-3.40956 1.380334,-0.4158 2.760668,-0.16632 1.380334,-0.66528 1.380334,-0.49896 1.380334,-0.16632 1.380333,-2.24532 1.380334,-0.74844 2.760668,4.158 1.380334,1.2474 1.380334,-1.58004 1.380329,-2.24532 1.38034,-1.41372 1.38033,-2.24532 1.38034,0.58212 1.38033,-0.33264 1.38034,-2.9106 1.38033,1.49688 1.38033,2.079 1.38034,-0.4158 1.38033,1.16424 1.38033,-0.16632 2.76067,-5.73804 1.38034,-0.91476 1.38033,-1.58004 1.38033,-4.49064 1.38034,-1.58004 1.38033,1.16424 2.76067,-3.99168 1.38033,-0.4158 1.38034,-0.24948 2.76067,3.3264 1.38033,0.58212 1.38033,1.58004 1.38034,3.40956 1.38033,5.48856 1.38034,3.16008 1.38033,2.24532 1.38033,5.65488 1.38034,2.4948 1.38033,-1.99584 1.38034,-1.2474 1.38033,-1.41372 1.38033,-1.2474 1.38034,-1.08108 1.38033,-2.079 1.38033,-0.33264 1.38034,-0.49896 1.38033,-1.74636 1.38034,0.49896 1.38033,1.58004 1.38033,1.33056 1.38034,1.58004 1.38033,0.91476 h 1.38034 l 1.38033,-2.82744 1.38033,-5.48856 1.38034,-3.16008 1.38033,-0.74844 1.38034,0.58212 1.38033,1.41372 1.38033,-2.4948 1.38034,-5.48856 1.38033,-1.6632 1.38034,2.41164 1.38033,0.08316 1.38033,-1.82952 2.76067,3.49272 1.38034,0.49896 1.38033,3.82536 1.38033,0.24948 1.38034,-3.90852 1.38033,-0.58212 1.38034,-1.91268 1.38033,-2.41164 1.38033,1.16424 1.38034,0.58212 1.38033,-0.58212 1.38034,-1.6632 1.38033,-1.91268 1.38033,0.4158 1.38034,0.99792 1.38033,1.6632 1.38034,1.99584 1.38033,-0.74844 1.38033,-1.16424 1.38034,1.91268 1.38033,2.32848 1.38033,-0.99792 1.38034,-1.33056 1.38033,-2.4948 1.38034,-2.99376 2.76066,5.73804 2.76067,-1.08108 1.38034,-7.73388 1.38033,-5.73804 1.38033,6.73596 1.38034,4.74012 1.38033,-0.99792 1.38034,1.2474 1.38033,0.8316 1.38033,0.58212 1.38034,2.74428 1.38033,3.07692 1.38034,-0.16632 2.76066,-9.23076 2.76067,-7.31808 1.38034,-0.91476 1.38033,0.16632 1.38033,-2.24532 1.38034,-0.24948 2.76067,8.316 1.38033,3.40956 1.38033,4.07484 1.38034,0.91476 1.38033,-0.99792 1.38034,-1.41372 1.38033,-5.4054 1.38033,-4.158 1.38034,-0.91476 1.38033,-4.90644 1.38033,-4.32432 1.38034,-2.079 1.38033,-3.24324 1.38034,0.49896 1.38033,2.82744 1.38033,3.3264 1.38034,7.4844 2.76067,16.46568 1.38033,7.56756 1.38033,4.90644 2.76067,7.65072 1.38034,2.99376 1.38033,-1.41372 1.38033,-5.90436 2.76067,-9.64656 1.38034,-6.90228 1.38033,-2.82744 1.38033,2.41164 1.38034,0.58212 1.38033,-0.66528 1.38034,4.65696 4.141,22.4532 1.38033,4.9896 1.38034,1.41372 1.38033,0.74844 1.38033,1.16424 1.38034,-0.33264 2.76067,-11.72556 1.38033,-2.82744 1.38033,-3.24324 1.38034,-2.32848 1.38033,-2.079 1.38034,0.08316 1.38033,6.40332 1.38033,4.74012 1.38034,-0.16632 1.38033,0.8316 1.38033,2.74428 1.38034,5.4054 1.38033,7.81704 1.38034,5.32224 1.38033,0.91476 2.76067,2.24532 1.38033,-3.57588 1.38034,-5.48856 1.38033,-4.07484 1.38033,-1.91268 1.38034,-2.16216 1.38033,-6.15384 1.38034,-4.158 1.38033,0.16632 1.38034,-1.49688 1.38033,-0.74844 1.38033,1.2474 2.76067,0.49896 1.38033,1.99584 1.38034,3.7422 1.38033,4.40748 1.38034,6.40332 1.38033,4.90644 1.38033,0.4158 1.38034,3.24324 1.38033,2.66112 1.38034,-3.90852 1.38033,-2.41164 1.38033,-2.079 1.38034,-5.23908 1.38033,-2.41164 1.38034,-1.49688 1.38033,-3.82536 1.38033,-1.74636 1.38034,1.91268 1.38033,0.58212 1.38034,-2.32848 1.38033,0.66528 1.38033,5.07276 1.38034,7.40124 1.38033,8.64864 1.38033,4.40748 1.38034,-1.74636 1.38033,-3.49272 1.38034,-2.4948 1.38033,-1.58004 1.38033,-1.91268 1.38034,-3.3264 1.38033,-4.32432 1.38034,-4.74012 1.38033,-6.07068 1.38033,-5.4054 1.38034,-0.66528 1.38033,2.57796 1.38034,3.99168 1.38033,5.4054 1.38033,4.158 1.38034,5.32224 1.38033,6.15384 1.38034,0.8316 1.38033,-1.41372 1.38033,3.3264 1.38034,8.23284 1.38033,6.15384 1.38034,-3.24324 1.38033,-7.31808 2.76067,-8.7318 1.38033,-7.56756 1.38034,-6.6528 1.38033,-1.74636 1.38033,-0.16632 1.38034,2.57796 1.38033,8.39916 1.38034,5.23908 1.38033,1.58004 1.38033,5.57172 1.38034,4.158 1.38033,1.6632 4.141,11.97504 1.38034,6.07068 1.38033,3.57588 1.38033,-2.41164 1.38034,-4.49064 1.38033,-2.32848 1.38034,-3.16008 1.38033,-4.9896 1.38034,-2.9106 1.38033,0.24948 1.38033,1.16424 1.38034,-0.24948 1.38033,-1.33056 1.38033,-2.4948 1.38034,-3.16008 1.38033,0.16632 1.38034,3.57588 1.38033,4.82328 1.38033,5.32224 1.38034,3.99168 1.38033,2.9106 1.38034,0.49896 1.38033,-1.99584 1.38033,-2.4948 1.38034,-5.48856 1.38033,-7.23492 2.76067,-9.64656 1.38033,-3.90852 1.38034,-2.82744 1.38033,-2.079 1.38034,2.32848 1.38033,3.65904 1.38033,0.58212 1.38034,2.82744 1.38033,6.237 4.141,16.54884 1.38034,3.49272 1.38033,2.41164 1.38033,-0.58212 1.38034,-3.16008 1.38033,-1.82952 1.38034,-2.66112 1.38033,-3.7422 1.38033,-1.91268 1.38034,-1.2474 1.38033,0.24948 1.38034,0.66528 1.38033,-0.24948 1.38033,1.08108 1.38034,-0.16632 1.38033,-1.6632 1.38034,1.2474 1.38033,3.65904 1.38033,3.16008 1.38034,0.16632 1.38033,-0.4158 1.38034,0.33264 1.38033,-2.41164 1.38033,-2.079 1.38034,-1.49688 1.38033,-4.32432 1.38034,-3.65904 1.38033,-3.3264 1.38033,-2.99376 1.38034,0.33264 1.38033,0.16632 1.38034,-1.74636 1.38033,-1.16424 2.76067,3.99168 1.38033,-1.91268 1.38034,-1.41372 1.38033,1.16424 1.38033,0.74844 1.38034,0.99792 1.38033,-0.33264 1.38034,-1.91268 1.38033,-2.74428 1.38033,-3.90852 4.141,-8.39916 2.76067,-6.90228 1.38034,-1.2474 h 1.38033 l 1.38033,1.99584 1.38034,4.5738 1.38033,1.6632 1.38034,-0.24948 1.38033,1.58004 1.38033,1.91268 1.38034,1.6632 1.38033,-0.66528 1.38034,-0.99792 1.38033,1.33056 1.38033,-1.33056 1.38034,-4.158 1.38033,-1.82952 1.38034,-0.99792 1.38033,-3.3264 1.38033,-4.74012 1.38034,-3.99168 1.38033,-2.82744 1.38034,-1.16424 1.38033,0.58212 1.38033,-0.58212 1.38034,-0.91476 1.38033,1.41372 1.38034,2.32848 1.38033,1.74636 1.38033,1.2474 1.38034,3.24324 1.38033,5.07276 1.38034,2.16216 1.38033,0.08316 1.38033,0.58212 1.38034,-0.49896 1.38033,-1.16424 1.38033,-2.32848 1.38034,-2.9106 2.76067,-3.82536 1.38033,-1.33056 1.38033,-0.33264 1.38034,-2.66112 1.38033,-3.16008 1.38034,-0.8316 1.38033,1.2474 1.38033,1.41372 1.38034,0.49896 1.38033,1.99584 1.38034,2.99376 1.38033,-0.99792 1.38033,-2.66112 1.38034,0.24948 1.38033,-0.16632 1.38034,-0.91476 1.38033,1.99584 1.38033,0.58212 1.38034,-1.99584 1.38033,-0.91476 1.38034,-2.9106 v 0"
         style="fill:none;stroke:#000000;stroke-width:2;stroke-linecap:square;stroke-linejoin:round;stroke-miterlimit:10;stroke-dasharray:none;stroke-opacity:0.209845"
         transform="matrix(1.3333333,0,0,-1.3333333,0,426.74943)"
         clip-path="url(#clipPath7)" />
      <path
         id="path8"
         d="m 99.453061,58.87728 1.380329,-2.24532 1.38034,-1.41372 1.38033,-2.24532 1.38034,0.58212 1.38033,-0.33264 1.38034,-2.9106 1.38033,1.49688 1.38033,2.079 1.38034,-0.4158 1.38033,1.16424 1.38033,-0.16632 2.76067,-5.73804 1.38034,-0.91476 1.38033,-1.58004 1.38033,-4.49064 1.38034,-1.58004 1.38033,1.16424 2.76067,-3.99168 1.38033,-0.4158 1.38034,-0.24948 2.76067,3.3264 1.38033,0.58212 1.38033,1.58004 1.38034,3.40956 1.38033,5.48856 1.38034,3.16008 1.38033,2.24532 1.38033,5.65488 1.38034,2.4948 1.38033,-1.99584 1.38034,-1.2474 1.38033,-1.41372 1.38033,-1.2474 1.38034,-1.08108 1.38033,-2.079 1.38033,-0.33264 1.38034,-0.49896 1.38033,-1.74636 1.38034,0.49896 1.38033,1.58004 1.38033,1.33056 1.38034,1.58004 1.38033,0.91476 h 1.38034 l 1.38033,-2.82744 1.38033,-5.48856 1.38034,-3.16008 1.38033,-0.74844 1.38034,0.58212 1.38033,1.41372 1.38033,-2.4948 1.38034,-5.48856 1.38033,-1.6632 1.38034,2.41164 1.38033,0.08316 1.38033,-1.82952 2.76067,3.49272 1.38034,0.49896 1.38033,3.82536 1.38033,0.24948 1.38034,-3.90852 1.38033,-0.58212 1.38034,-1.91268 1.38033,-2.41164 1.38033,1.16424 1.38034,0.58212 1.38033,-0.58212 1.38034,-1.6632 1.38033,-1.91268 1.38033,0.4158 1.38034,0.99792 1.38033,1.6632 1.38034,1.99584 1.38033,-0.74844 1.38033,-1.16424 1.38034,1.91268 1.38033,2.32848 1.38033,-0.99792 1.38034,-1.33056 1.38033,-2.4948 1.38034,-2.99376 2.76066,5.73804 2.76067,-1.08108 1.38034,-7.73388 1.38033,-5.73804 1.38033,6.73596 1.38034,4.74012 1.38033,-0.99792 1.38034,1.2474 1.38033,0.8316 1.38033,0.58212 1.38034,2.74428 1.38033,3.07692 1.38034,-0.16632 2.76066,-9.23076 2.76067,-7.31808 1.38034,-0.91476 1.38033,0.16632 1.38033,-2.24532 1.38034,-0.24948 2.76067,8.316 1.38033,3.40956 1.38033,4.07484 1.38034,0.91476 1.38033,-0.99792 1.38034,-1.41372 1.38033,-5.4054 1.38033,-4.158 1.38034,-0.91476 1.38033,-4.90644 1.38033,-4.32432 1.38034,-2.079 1.38033,-3.24324 1.38034,0.49896 1.38033,2.82744 1.38033,3.3264 1.38034,7.4844 2.76067,16.46568 1.38033,7.56756 1.38033,4.90644 2.76067,7.65072 1.38034,2.99376 1.38033,-1.41372 1.38033,-5.90436 2.76067,-9.64656 1.38034,-6.90228 1.38033,-2.82744 1.38033,2.41164 1.38034,0.58212 1.38033,-0.66528 1.38034,4.65696 4.141,22.4532 1.38033,4.9896 1.38034,1.41372 1.38033,0.74844 1.38033,1.16424 1.38034,-0.33264 2.76067,-11.72556 1.38033,-2.82744 1.38033,-3.24324 1.38034,-2.32848 1.38033,-2.079 1.38034,0.08316 1.38033,6.40332 1.38033,4.74012 1.38034,-0.16632 1.38033,0.8316 1.38033,2.74428 1.38034,5.4054 1.38033,7.81704 1.38034,5.32224 1.38033,0.91476 2.76067,2.24532 1.38033,-3.57588 1.38034,-5.48856 1.38033,-4.07484 1.38033,-1.91268 1.38034,-2.16216 1.38033,-6.15384 1.38034,-4.158 1.38033,0.16632 1.38034,-1.49688 1.38033,-0.74844 1.38033,1.2474 2.76067,0.49896 1.38033,1.99584 1.38034,3.7422 1.38033,4.40748 1.38034,6.40332 1.38033,4.90644 1.38033,0.4158 1.38034,3.24324 1.38033,2.66112 1.38034,-3.90852 1.38033,-2.41164 1.38033,-2.079 1.38034,-5.23908 1.38033,-2.41164 1.38034,-1.49688 1.38033,-3.82536 1.38033,-1.74636 1.38034,1.91268 1.38033,0.58212 1.38034,-2.32848 1.38033,0.66528 1.38033,5.07276 1.38034,7.40124 1.38033,8.64864 1.38033,4.40748 1.38034,-1.74636 1.38033,-3.49272 1.38034,-2.4948 1.38033,-1.58004 1.38033,-1.91268 1.38034,-3.3264 1.38033,-4.32432 1.38034,-4.74012 1.38033,-6.07068 1.38033,-5.4054 1.38034,-0.66528 1.38033,2.57796 1.38034,3.99168 1.38033,5.4054 1.38033,4.158 1.38034,5.32224 1.38033,6.15384 1.38034,0.8316 1.38033,-1.41372 1.38033,3.3264 1.38034,8.23284 1.38033,6.15384 1.38034,-3.24324 1.38033,-7.31808 2.76067,-8.7318 1.38033,-7.56756 1.38034,-6.6528 1.38033,-1.74636 1.38033,-0.16632 1.38034,2.57796 1.38033,8.39916 1.38034,5.23908 1.38033,1.58004 1.38033,5.57172 1.38034,4.158 1.38033,1.6632 4.141,11.97504 1.38034,6.07068 1.38033,3.57588 1.38033,-2.41164 1.38034,-4.49064 1.38033,-2.32848 1.38034,-3.16008 1.38033,-4.9896 1.38034,-2.9106 1.38033,0.24948 1.38033,1.16424 1.38034,-0.24948 1.38033,-1.33056 1.38033,-2.4948 1.38034,-3.16008 1.38033,0.16632 1.38034,3.57588 1.38033,4.82328 1.38033,5.32224 1.38034,3.99168 1.38033,2.9106 1.38034,0.49896 1.38033,-1.99584 1.38033,-2.4948 1.38034,-5.48856 1.38033,-7.23492 2.76067,-9.64656 1.38033,-3.90852 1.38034,-2.82744 1.38033,-2.079 1.38034,2.32848 1.38033,3.65904 1.38033,0.58212 1.38034,2.82744 1.38033,6.237 4.141,16.54884 1.38034,3.49272 1.38033,2.41164 1.38033,-0.58212 1.38034,-3.16008 1.38033,-1.82952 1.38034,-2.66112 1.38033,-3.7422 1.38033,-1.91268 1.38034,-1.2474 1.38033,0.24948 1.38034,0.66528 1.38033,-0.24948 1.38033,1.08108 1.38034,-0.16632 1.38033,-1.6632 1.38034,1.2474 1.38033,3.65904 1.38033,3.16008 1.38034,0.16632 1.38033,-0.4158 1.38034,0.33264 1.38033,-2.41164 1.38033,-2.079 1.38034,-1.49688 1.38033,-4.32432 1.38034,-3.65904 1.38033,-3.3264 1.38033,-2.99376 1.38034,0.33264 1.38033,0.16632 1.38034,-1.74636 1.38033,-1.16424 2.76067,3.99168 1.38033,-1.91268 1.38034,-1.41372 1.38033,1.16424 1.38033,0.74844 1.38034,0.99792 1.38033,-0.33264 1.38034,-1.91268 1.38033,-2.74428 1.38033,-3.90852 4.141,-8.39916 2.76067,-6.90228 1.38034,-1.2474 h 1.38033 l 1.38033,1.99584 1.38034,4.5738 1.38033,1.6632 1.38034,-0.24948 1.38033,1.58004 1.38033,1.91268 1.38034,1.6632 v 0"
         style="fill:none;stroke:#000000;stroke-width:4;stroke-linecap:square;stroke-linejoin:round;stroke-miterlimit:10;stroke-dasharray:none;stroke-opacity:1"
         transform="matrix(1.3333333,0,0,-1.3333333,0,426.74943)"
         clip-path="url(#clipPath9)" />
    </g>
    <rect
       style="fill:#000000;fill-opacity:1;stroke-width:0.701114"
       id="rect10"
       width="410.08447"
       height="12.612716"
       x="350.45328"
       y="428.83231"
       ry="0" />
    <text
       xml:space="preserve"
       style="font-weight:bold;font-size:37.3333px;line-height:1.1;font-family:'Liberation Sans';-inkscape-font-specification:'Liberation Sans Bold';text-align:justify;letter-spacing:0px;word-spacing:0px;fill:#000000;fill-opacity:1;stroke-width:2.51339"
       x="485.58951"
       y="417.12048"
       id="text10"><tspan
         sodipodi:role="line"
         id="tspan10"
         x="485.58951"
         y="417.12048">1 second</tspan></text>
    <rect
       style="fill:#000000;fill-opacity:1;stroke-width:0.456899"
       id="rect10-9-3"
       width="13.914886"
       height="157.85744"
       x="1.0587021"
       y="248.60751"
       ry="0" />
    <text
       xml:space="preserve"
       style="font-weight:bold;font-size:37.3333px;line-height:1.1;font-family:'Liberation Sans';-inkscape-font-specification:'Liberation Sans Bold';text-align:justify;letter-spacing:0px;word-spacing:0px;fill:#000000;fill-opacity:1;stroke:#000000;stroke-width:2.51339;stroke-opacity:0.132124"
       x="35.674137"
       y="276.47458"
       id="text737"><tspan
         sodipodi:role="line"
         id="tspan737"
         x="35.674137"
         y="276.47458">160 μV </tspan></text>
  </g>
</svg>
