<?xml version="1.0" encoding="UTF-8" standalone="no"?>
<!-- Created with Inkscape (http://www.inkscape.org/) -->

<svg
   version="1.1"
   id="svg1"
   width="845.37823"
   height="285.9632"
   viewBox="0 0 845.37823 285.96319"
   sodipodi:docname="longer_sample_e8-e11.svg"
   inkscape:version="1.3 (0e150ed6c4, 2023-07-21)"
   xmlns:inkscape="http://www.inkscape.org/namespaces/inkscape"
   xmlns:sodipodi="http://sodipodi.sourceforge.net/DTD/sodipodi-0.dtd"
   xmlns="http://www.w3.org/2000/svg"
   xmlns:svg="http://www.w3.org/2000/svg">
  <defs
     id="defs1">
    <clipPath
       clipPathUnits="userSpaceOnUse"
       id="clipPath3">
      <path
         d="m 0,116.16 h 669.6 v 105.6 H 0 Z"
         id="path3" />
    </clipPath>
    <clipPath
       clipPathUnits="userSpaceOnUse"
       id="clipPath5">
      <path
         d="m 0,116.16 h 669.6 v 105.6 H 0 Z"
         id="path5" />
    </clipPath>
    <clipPath
       clipPathUnits="userSpaceOnUse"
       id="clipPath7">
      <path
         d="M 0,0 H 669.6 V 105.6 H 0 Z"
         id="path7" />
    </clipPath>
  </defs>
  <sodipodi:namedview
     id="namedview1"
     pagecolor="#ffffff"
     bordercolor="#999999"
     borderopacity="1"
     inkscape:showpageshadow="2"
     inkscape:pageopacity="0"
     inkscape:pagecheckerboard="0"
     inkscape:deskcolor="#d1d1d1"
     inkscape:zoom="1.0103047"
     inkscape:cx="200.92949"
     inkscape:cy="103.43414"
     inkscape:window-width="2560"
     inkscape:window-height="1369"
     inkscape:window-x="-8"
     inkscape:window-y="701"
     inkscape:window-maximized="1"
     inkscape:current-layer="g1">
    <inkscape:page
       x="0"
       y="0"
       inkscape:label="1"
       id="page1"
       width="845.37823"
       height="285.9632"
       margin="0"
       bleed="0" />
  </sodipodi:namedview>
  <g
     id="g1"
     inkscape:groupmode="layer"
     inkscape:label="1"
     transform="translate(-7.6523381,-7.9426716)">
    <g
       id="g7"
       transform="translate(0,29.694013)">
      <g
         id="g8"
         transform="translate(0,-4.9490023)">
        <path
           id="path2"
           d="m 30.436364,173.2876 0.324741,2.70888 0.487111,8.72126 0.162371,-0.46249 0.162371,0.85891 0.16237,1.51962 0.162371,3.50172 0.16237,1.05712 0.162371,-1.51961 0.16237,0.59463 0.324742,-2.37853 0.16237,1.51962 0.324741,-3.1053 0.162371,0.46249 0.487112,-5.5499 0.16237,-0.39642 h 0.162371 l 0.16237,0.72677 0.324741,-3.43565 0.487112,3.50172 0.324741,-2.11424 0.162371,0.52856 0.16237,-0.85891 0.162371,-2.04818 0.324741,0.85891 0.324741,-3.1053 0.162371,-0.26428 0.324741,2.37853 0.324741,-3.30351 0.162371,-0.26428 0.16237,0.33035 0.162371,1.05712 0.324741,0.26428 0.162371,1.25534 0.16237,-1.25534 0.162371,-2.44459 0.16237,0.26428 0.162371,-1.05713 0.16237,-2.57673 0.324742,3.50172 0.16237,-1.25534 0.162371,-0.13214 0.324741,3.23744 0.162371,-0.13214 0.16237,1.32141 0.162371,-0.79285 0.16237,-2.04817 0.162371,0.39642 0.16237,-0.85891 0.162371,-2.18032 0.162371,-0.6607 0.324741,-2.37853 0.16237,1.71782 0.162371,-0.6607 0.16237,-2.51066 0.162371,-0.66071 0.162371,0.59463 0.16237,-0.85891 0.162371,-2.11424 0.16237,0.6607 0.162371,2.90709 0.16237,0.46249 0.162371,-0.39642 0.487112,4.55884 0.16237,-0.0661 0.162371,0.19821 0.16237,2.11425 0.162371,-0.6607 0.162371,-2.77495 0.16237,-0.66071 0.324741,-0.0661 0.487112,1.51962 0.162371,-1.38747 0.16237,0.39642 0.162371,0.72677 0.487111,-5.68204 0.162371,-2.18032 0.162371,0.66071 0.16237,-0.19821 0.162371,0.52856 0.324741,3.63386 0.16237,1.51961 0.162371,0.33035 0.162371,-2.57673 0.324741,2.70887 0.16237,-1.91603 0.162371,0.59463 0.16237,1.3214 0.162371,0.19822 0.324741,2.44459 0.162371,-1.05712 0.16237,0.46249 0.324741,3.36958 0.324742,-0.72677 0.487111,1.05712 0.324741,-1.05712 0.162371,0.6607 0.324741,-1.91603 0.162371,1.12319 0.324741,-2.37853 0.16237,2.18032 0.162371,-0.33035 0.162371,-1.05713 0.16237,0.66071 0.487112,-0.99106 0.16237,-0.99105 0.324742,0.59463 0.324741,-1.71782 0.16237,0.13214 0.162371,-0.79285 0.324741,1.1232 0.324741,-2.18032 0.162371,-0.19821 0.324741,-3.03923 0.16237,-0.85891 0.811853,-10.43909 0.324741,-3.23744 0.162371,-0.46249 h 0.162371 l 0.16237,0.99105 0.162371,-1.12319 0.16237,-0.19821 0.811853,9.84445 0.162371,0.79285 0.16237,0.0661 0.162371,0.85891 0.16237,-1.25533 0.162371,-2.90709 0.324741,-0.6607 0.162371,-0.92499 0.16237,0.19821 h 0.162371 l 0.324741,2.90709 0.162371,-0.0661 0.811852,9.91053 0.162371,0.6607 1.298965,24.11563 0.649482,9.58018 0.16237,0.39642 0.162371,-0.0661 0.324741,2.84102 0.162371,0.52856 0.16237,-0.0661 0.324741,-2.51067 0.324742,4.36063 0.324741,-2.97316 0.487111,-6.40881 0.324742,-5.0874 0.16237,-0.52856 0.162371,2.11424 0.487111,18.43359 0.162371,3.50172 0.162371,-0.52856 0.16237,-0.92498 0.162371,-2.24639 0.649482,-16.51755 0.162371,-1.25534 0.16237,2.04818 0.649482,14.66759 0.162371,2.11424 1.136594,-22.3978 0.487112,8.72127 0.16237,0.6607 0.324741,-4.75705 0.487112,-8.58913 0.162371,3.36958 0.487111,19.2925 0.162371,2.04818 0.162371,-0.13214 0.16237,-4.03029 0.649482,-31.11906 0.162371,-0.85891 0.324741,6.73916 0.324741,9.58018 0.162371,2.6428 0.16237,4.95527 0.162371,0.79284 0.487112,-8.39091 0.649482,-19.42464 0.162371,-3.43565 0.16237,-0.46249 0.162371,0.79284 0.324741,2.97316 0.324741,-7.53201 0.162371,-0.52856 0.16237,-1.51961 0.324741,1.58568 0.487112,-10.83551 0.162371,1.3214 0.324741,12.75155 0.324741,1.1232 0.16237,-0.59464 0.324742,-2.77494 0.16237,1.3214 0.162371,-0.33035 0.16237,-1.98211 0.324741,1.18927 0.162371,-1.1232 0.162371,1.1232 0.324741,4.55884 0.16237,0.59463 0.162371,1.32141 0.324741,4.36063 0.162371,-1.05712 0.16237,-0.13214 0.649482,-5.68204 0.487112,4.22849 0.324741,0.59463 0.324741,2.90709 0.162371,-0.6607 0.162371,1.98211 0.16237,0.52856 0.162371,-0.72677 0.16237,-1.45355 0.162371,-3.43565 0.324741,-2.31246 0.162371,-3.03923 0.324741,1.84997 0.487111,-3.50172 0.162371,1.05712 0.162371,-0.39642 0.16237,-0.72677 0.162371,-0.0661 0.16237,0.39642 0.162371,-0.19821 0.811853,-20.54783 0.16237,0.33035 0.162371,-0.85891 0.16237,-1.84997 0.162371,-0.39642 0.162371,0.72677 0.16237,1.71783 0.487112,11.69442 0.16237,1.25534 0.162371,-0.19821 0.162371,1.45354 0.649482,10.76944 0.16237,-0.79284 0.162371,-1.65176 0.487112,-10.76944 0.324741,-1.45354 0.324741,5.61597 0.324741,7.532 0.487112,13.0819 0.16237,-0.6607 0.162371,-0.0661 0.162371,-0.79285 0.487111,-13.7426 0.324741,-11.03372 0.487112,-11.0998 0.324741,-4.49277 0.324741,1.58569 0.162371,-0.0661 0.162371,2.84101 0.487111,14.60152 0.162371,1.78389 0.324741,-0.46249 0.162371,-3.50172 0.324741,-9.58018 0.324741,-5.35168 0.16237,-0.33035 0.162371,0.13214 0.162371,-0.99106 0.16237,-0.13214 0.324741,7.06951 0.811853,29.07089 0.162371,1.32141 0.16237,3.83207 0.162372,0.92498 1.13659,-16.05506 0.16237,0.13214 0.48711,5.35169 0.48712,11.49621 0.32474,4.09636 0.32474,1.25533 0.16237,2.04818 0.16237,0.13214 1.13659,-29.00482 0.16237,0.13214 0.64949,-7.92843 0.16237,1.51962 0.32474,4.62491 0.81185,11.29801 0.32474,-2.84102 0.64948,-10.76944 0.32475,-3.63387 0.16237,-0.0661 0.16237,0.72678 0.32474,6.8713 0.81185,19.9532 0.16237,-0.39642 0.16237,1.18926 0.16237,-0.99105 0.81186,-15.06401 0.32474,-3.30351 0.32474,2.18032 0.32474,6.73916 0.97422,22.66208 0.16237,1.58568 0.16237,-0.26428 0.16237,-2.37853 0.48712,-15.92291 0.32474,-4.62492 0.16237,-2.11424 0.32474,-6.2106 0.32474,-5.15348 0.16237,1.05712 0.32474,-1.65175 0.16237,1.71783 0.32474,-1.7839 0.16237,0.0661 1.1366,-24.77633 0.16237,-1.65175 0.48711,-9.05162 0.16237,-0.99105 0.16237,0.13214 0.32474,6.54095 0.64949,6.27667 0.64948,18.49965 0.48711,21.0764 0.16237,2.90709 0.32474,-2.51067 0.16237,-3.17137 0.48711,-20.87818 0.64948,-14.46938 0.32475,-4.88919 0.16237,0.46249 0.16237,-1.51962 0.16237,-2.6428 0.16237,0.46249 0.16237,-0.52856 0.81185,-6.47488 0.16237,-0.6607 0.16237,1.45354 0.16237,0.39642 0.64949,-3.69993 0.16237,1.38747 0.16237,6.80523 0.32474,20.81212 0.16237,5.0874 0.16237,1.32141 0.16237,-1.71783 0.32474,-9.9766 0.32474,-10.70337 0.16237,-1.51961 0.32474,6.87129 0.81186,17.24433 0.16237,2.37852 0.48711,13.28011 0.32474,4.09636 0.16237,-0.19821 0.16237,0.59463 0.16237,-0.39642 0.16237,-1.18927 0.64948,10.50516 0.16238,4.2285 0.16237,0.92498 0.48711,-7.06951 0.48711,-12.09085 0.16237,2.37853 0.16237,-0.13214 0.16237,0.85891 0.16237,-0.79284 0.16237,-2.64281 0.32474,1.65176 0.16237,-1.58569 0.16237,-0.26428 0.64949,7.66414 0.16237,-0.92498 0.16237,-2.04817 0.16237,0.52856 0.48711,2.77495 0.32474,-3.63387 0.16237,-0.19821 0.16237,0.79285 0.16237,2.04817 0.16237,0.19821 0.16237,-0.19821 0.48712,5.28562 0.32474,8.32484 0.16237,1.71783 0.16237,-0.39642 0.32474,-10.50516 0.16237,-0.13214 0.16237,0.39642 0.81185,18.49965 0.64949,-8.52305 0.16237,-0.79285 0.16237,1.1232 0.16237,0.0661 0.32474,-4.09635 0.16237,1.3214 0.16237,-0.19821 0.32474,1.91603 0.16237,-1.71782 0.16237,0.46249 0.16237,1.38747 0.16237,0.0661 0.16237,0.26428 0.16237,-1.05713 0.16237,-0.26428 0.16238,0.13214 0.16237,-1.58568 0.16237,-0.46249 0.32474,0.92498 0.32474,2.11425 0.16237,-0.26429 h 0.16237 l 0.16237,-0.46249 0.48711,-2.77495 0.16237,0.92499 0.16237,-0.19821 0.16237,-0.72678 0.16237,1.25534 0.16237,0.33035 0.32475,-6.14453 0.16237,1.38748 0.16237,-0.0661 0.16237,0.26429 0.32474,3.56779 0.81185,-3.1053 0.16237,0.13214 0.32474,-3.83207 0.16237,0.39642 0.16237,-1.58569 0.16238,0.79284 0.16237,2.11425 0.16237,0.39642 0.32474,4.2285 0.32474,2.37852 0.16237,-0.33035 0.16237,0.26428 0.48711,5.02134 0.32474,2.77495 0.16237,-0.26429 0.16237,-0.72677 0.32474,1.58569 0.16238,0.46249 0.32474,-1.71783 0.16237,1.05713 0.16237,-0.66071 0.16237,-0.0661 0.16237,1.38748 0.32474,-1.91604 0.32474,-1.05712 0.16237,0.52856 0.16237,-1.65175 0.16237,0.13214 0.16237,1.84996 0.32475,-5.21954 0.16237,0.33035 0.16237,-0.33035 0.32474,-4.82313 0.16237,1.25534 0.16237,-0.85892 h 0.16237 l 0.16237,0.79285 0.32474,-5.21955 0.48711,6.67309 0.16237,-0.26428 0.16237,-2.04818 0.16237,-0.19821 0.32474,-0.6607 0.48712,2.64281 0.16237,-1.12319 0.16237,0.0661 0.16237,-1.25534 0.16237,-2.31246 0.32474,4.69099 0.32474,-1.51962 0.16237,-0.0661 0.32474,-1.51961 0.16237,0.0661 0.16237,-0.13214 0.16237,-1.38748 0.32475,-3.63386 0.32474,0.59464 0.16237,0.0661 0.32474,-0.26428 0.32474,-0.99106 0.16237,0.59463 0.32474,-0.92498 0.16237,-1.12319 0.16237,-2.97316 0.16237,0.92498 0.16237,2.11425 0.32474,-3.96421 0.16238,0.46249 0.32474,-0.59463 0.81185,-12.81762 0.16237,0.0661 0.16237,0.33035 0.16237,-0.0661 0.16237,-0.39642 0.16237,0.0661 0.16237,-0.0661 0.16237,-0.72678 0.32474,1.71783 0.16238,-2.37853 0.16237,-0.26428 0.16237,1.18927 0.32474,-2.90709 0.32474,3.766 0.16237,-1.38748 0.16237,-2.70887 0.48711,-1.91604 0.32474,2.04818 0.16237,-0.72678 0.16237,-1.25533 0.16237,0.52856 0.64949,7.13558 0.16237,-0.92498 0.48711,8.39092 0.32474,4.03028 0.16237,0.0661 0.16237,-0.79284 0.16237,-2.37853 0.16237,-0.6607 0.16237,0.99105 0.32474,-1.12319 0.16237,1.84996 0.64949,19.02822 0.16237,2.57674 0.16237,0.39642 0.32474,-2.04818 1.13659,-22.72815 0.32474,-3.23744 0.16237,-1.78389 0.16238,1.78389 h 0.16237 l 0.16237,-2.44459 0.16237,-0.26428 0.16237,0.0661 0.16237,-0.19822 0.16237,0.26429 0.32474,-1.18927 0.16237,-0.39642 0.16237,-0.85891 0.16237,1.3214 0.32474,4.49278 0.81186,8.1927 0.16237,-0.6607 0.16237,0.59463 0.16237,1.7839 0.32474,0.39642 h 0.16237 l 0.16237,0.33035 0.16237,1.65175 0.16237,0.39642 0.16237,-0.0661 0.16237,-0.19821 0.16237,-1.25533 h 0.16237 l 0.16237,0.59463 0.16237,-0.33035 0.32475,-1.58568 0.16237,1.25533 0.16237,-0.26428 0.48711,-8.25878 0.16237,-0.92498 0.16237,1.05712 0.16237,-0.46249 0.16237,0.46249 0.16237,1.58569 0.16237,-0.92498 0.32474,-4.29457 0.32474,1.1232 0.16237,-2.4446 0.16238,-0.0661 0.16237,2.11425 0.16237,0.0661 0.16237,0.59463 0.32474,3.89814 0.16237,0.85891 0.16237,-0.19821 h 0.16237 l 0.16237,0.85891 0.32474,-0.33035 0.16237,0.59463 0.32474,-2.51066 0.32474,3.96421 0.16237,0.46249 0.16238,2.24639 0.16237,-0.39642 0.16237,0.52856 0.16237,1.38747 0.16237,-2.4446 0.16237,-0.52856 0.16237,-0.0661 0.16237,-3.1053 0.16237,0.0661 0.16237,1.38748 0.32474,-2.4446 0.16237,-0.26428 0.16237,0.19821 0.32474,-0.26428 0.16237,0.6607 0.16238,0.0661 0.16237,-0.92498 0.16237,-0.19821 0.16237,1.51961 0.16237,0.26428 0.16237,-0.52856 0.16237,1.45355 0.16237,-0.72678 0.16237,-2.44459 0.32474,-1.25534 0.32474,4.09635 0.16237,-1.58568 0.16237,0.26428 0.16237,1.58569 0.16237,-0.39643 0.32475,0.99106 0.16237,-0.33035 0.81185,-3.30351 0.16237,2.70887 0.16237,0.13215 0.16237,0.52856 0.16237,1.51961 0.16237,-0.72677 0.16237,-0.0661 0.16237,0.13214 0.64949,-3.03923 0.32474,-5.08741 0.16237,-0.26428 0.32474,-2.24638 0.32474,-2.4446 0.16237,0.85891 0.32474,-4.49277 0.16237,0.26428 0.16237,-0.13214 0.48711,-3.56779 0.16237,0.79284 0.16237,-0.6607 0.16238,0.6607 0.16237,3.50172 0.16237,0.52856 0.16237,-0.72677 0.16237,1.12319 0.16237,-1.25533 0.16237,-2.18032 0.16237,-0.52856 0.16237,0.0661 0.32474,2.70888 0.16237,-0.85891 0.16237,1.3214 0.32474,0.33035 0.16237,1.65176 0.16237,-0.59463 0.16238,1.25533 0.16237,2.37853 0.16237,-0.0661 0.16237,0.33035 0.32474,-0.19821 0.16237,0.72677 0.16237,0.13214 0.32474,1.58568 h 0.16237 l 0.16237,1.51962 0.16237,-0.13214 0.16237,0.13214 0.32474,1.58568 0.32474,5.21955 0.32475,-1.65176 0.16237,-0.26428 0.16237,-0.85891 0.16237,0.26428 0.48711,1.98211 0.16237,-0.46249 0.16237,1.25533 0.16237,0.19821 0.16237,-1.38747 0.32474,3.89814 0.16237,-1.38748 0.16237,-0.19821 0.16237,1.1232 0.32475,-2.70888 0.16237,0.13214 0.32474,-0.33035 0.32474,-1.05712 0.16237,0.13214 0.32474,-1.05713 0.32474,2.77495 0.16237,-1.3214 0.16237,-0.19821 0.64948,6.2106 0.16238,0.46249 0.48711,-2.4446 0.32474,-4.29456 0.16237,1.25533 0.16237,0.33035 0.32474,1.12319 0.16237,-0.33035 0.48711,0.72678 0.32474,-4.36064 0.16238,0.0661 0.32474,-1.45354 0.16237,0.6607 0.32474,-2.64281 0.16237,0.59463 0.16237,-0.99105 0.16237,-0.26428 0.32474,1.05712 0.16237,1.25534 h 0.16237 l 0.48711,-4.82313 0.16237,1.7839 0.16237,0.39642 0.48712,2.90709 0.16237,2.90709 0.16237,0.79284 0.16237,-1.45355 0.16237,0.13215 0.32474,-3.23744 0.16237,0.72677 0.64948,-7.06951 0.16237,-0.33035 0.32475,-0.13214 0.32474,-0.92499 0.16237,-0.13214 0.32474,-2.37852 0.48711,4.29456 0.48711,-4.16242 0.16237,-1.7839 0.16237,0.46249 0.16237,-0.26428 0.16237,-2.31246 0.32474,2.84102 0.16237,-0.33035 0.16237,0.92498 0.16238,-0.13214 0.32474,-4.55884 0.16237,-0.72677 0.16237,-1.25534 0.32474,-4.82312 0.16237,0.92498 0.32474,-3.17137 0.32474,-0.52856 0.48711,3.1053 0.16237,1.25533 0.64949,11.36408 0.32474,6.47488 0.48711,-3.69993 0.64948,-3.766 0.16237,-0.39643 0.16237,-1.38747 0.16237,0.39642 0.64949,4.29456 h 0.16237 l 0.16237,-2.24638 0.32474,-6.8713 0.16237,-0.59464 0.16237,0.4625 0.16237,1.12319 0.16237,-1.98211 0.16237,-4.36063 0.16237,-1.3214 0.16237,1.91603 0.16237,0.0661 0.16237,-1.45354 0.32474,2.77495 0.16237,0.39642 0.16238,3.03923 0.16237,0.19821 0.16237,-3.1053 0.16237,-0.46249 0.32474,-3.43565 0.32474,1.38747 0.16237,-0.46249 0.32474,-2.84102 0.16237,0.33035 0.32474,2.11425 0.16237,1.58568 0.32474,-1.51961 0.32475,3.36958 0.32474,-1.84997 0.32474,-4.36063 0.32474,4.55884 0.32474,-0.85891 0.32474,-10.70337 0.32474,9.11769 0.16237,-0.79285 0.32474,1.65176 0.16237,0.46249 0.32475,4.62491 0.16237,-0.13214 0.64948,-13.14797 0.16237,-0.72677 0.16237,0.13214 0.16237,-1.78389 0.16237,-0.19821 0.64948,12.55333 0.16237,0.72678 0.32474,-1.91604 0.32475,-7.59807 0.16237,-0.72678 0.32474,-7.33379 0.32474,-4.22849 0.16237,0.39642 0.32474,4.8892 0.97422,31.97797 0.32475,5.41776 0.16237,-1.12319 0.64948,-17.83896 0.16237,-2.24639 0.16237,1.91604 0.16237,0.46249 0.16237,-0.52856 0.32474,9.71232 0.48711,15.79078 0.48712,2.64281 0.16237,-0.26429 0.48711,-11.56228 0.48711,-6.07846 0.16237,0.0661 0.32474,8.85341 0.16237,-0.13214 0.16237,0.6607 0.16237,2.18032 0.64948,15.46042 0.32475,1.7839 0.97422,-18.56573 0.16237,-3.30351 0.16237,0.13214 0.32474,-1.78389 0.16237,0.99105 0.32474,0.39642 0.16237,1.58569 0.32475,6.47488 0.32474,8.98554 0.16237,0.33035 0.32474,4.69099 0.32474,-5.02134 0.16237,-1.65175 0.32474,-6.07846 0.16237,-1.18926 0.32474,-4.42671 0.16237,1.51962 0.16237,0.46249 0.16237,-1.84997 0.16237,0.52856 0.32475,9.91053 0.32474,10.37303 0.16237,-1.38748 0.32474,-4.75705 0.32474,-2.77495 0.32474,-6.07846 0.64948,-13.41225 0.32475,5.21955 0.64948,16.71576 0.16237,0.6607 0.16237,-1.12319 0.16237,2.6428 0.32474,11.43015 0.16237,-2.57674 0.32474,-9.18376 0.16237,-3.56779 0.32474,-11.298 0.16237,-1.38748 0.16238,-0.13214 0.16236,2.04818 0.32475,10.83551 0.16237,1.25534 0.32474,7.73021 0.16237,1.3214 0.81185,17.17826 0.16237,-1.91604 0.32474,-5.41776 0.48711,-8.78733 0.16238,0.19821 0.16237,0.92498 0.16237,-0.19821 0.16237,-1.05712 0.32474,-4.49278 0.16237,0.13214 0.32474,6.67309 0.32474,7.39986 0.16237,2.31246 0.16237,0.39642 0.32474,-3.56779 0.81186,-20.87818 0.32474,-3.89814 0.64948,7.46593 0.64948,18.10323 0.32474,4.69099 0.16237,-0.46249 0.64949,-9.05162 0.32474,-2.51067 0.16237,0.19821 0.16237,0.52856 0.16237,-0.19821 0.16237,0.85892 0.16237,-0.13214 0.16237,-1.32141 0.16237,0.99106 0.32474,5.41775 0.16237,0.13214 0.16237,-0.33035 0.16237,0.26428 0.64949,-8.1927 0.48711,-7.92843 0.32474,0.39642 0.32474,-2.31245 0.32474,3.17137 0.32474,-2.64281 0.48711,2.31246 0.16238,-0.26428 0.32474,-3.69994 0.48711,-7.39986 0.64948,-8.85341 h 0.16237 l 0.16237,1.58569 0.32474,4.95526 0.16237,-0.19821 0.48711,4.09636 0.32475,-1.32141 0.16237,1.05713 0.16237,-1.05713 0.32474,-4.75705 0.16237,-0.79284 0.81185,-12.75155 0.16237,0.46249 0.32474,-1.18927 0.32474,2.97316 0.48712,4.95527 0.32474,5.74811 0.16237,0.0661 0.16237,0.46249 0.16237,-0.39642 0.16237,-0.92499 0.81185,-8.25877 0.16237,-0.26428 0.48711,-5.28562 0.64949,4.09635 0.16237,2.37853 0.16237,-0.79284 0.16237,-2.11425 0.16237,0.19821 0.16237,-0.13214 0.16237,-0.72677 0.16237,1.58569 0.16237,0.46249 0.81185,-7.73022 0.16237,-0.46249 0.16238,0.13214 0.32474,-2.18031 0.81185,5.02133 0.32474,3.43565 0.16237,-0.39642 0.16237,-0.0661 0.16237,-0.33035 0.16237,0.0661 0.16237,0.59463 0.32475,-1.65175 0.16236,-0.13214 0.16238,0.0661 0.32474,4.4267 0.16237,-0.46249 0.16237,-1.45355 0.16237,0.52857 0.48711,3.10529 0.16237,0.19822 0.32474,1.38747 0.16237,-1.38747 0.16237,-0.19822 0.16237,1.1232 0.32474,0.46249 0.32475,1.91604 1.46133,-6.14453 0.16237,1.05712 0.16237,-0.33035 0.16237,-0.99105 0.16237,1.51961 0.16237,0.39642 0.16237,-0.92498 0.32475,2.77495 0.48711,-3.17137 0.16237,0.92498 0.16237,-0.0661 0.16237,-1.7839 0.32474,-0.39642 0.16237,-0.19821 0.16237,1.32141 0.16237,-0.72678 0.16237,-1.3214 0.16237,-0.19821 h 0.16237 l 0.16237,-0.6607 0.16237,-1.7839 0.16238,0.39642 0.16237,-0.13214 0.16237,-1.91603 0.16237,1.91603 0.16237,0.4625 0.16237,-3.03923 0.48711,-1.58569 0.16237,0.39642 0.16237,-0.92498 0.16237,1.18926 0.48711,6.2106 0.16237,0.72678 0.16237,-0.26429 0.32475,0.99106 0.16237,0.33035 0.64948,3.23744 0.32474,4.55884 0.16237,-1.45354 0.16237,-0.0661 0.32474,-2.11425 0.16237,0.92498 0.16237,0.0661 0.16237,1.1232 0.16237,-0.59464 0.16238,-1.65175 0.32474,3.56779 0.16237,-0.92498 0.16237,1.18926 0.32474,-0.52856 0.16237,-0.33035 0.16237,-1.1232 0.16237,0.4625 0.64948,-5.41776 0.16237,0.46249 0.16237,-1.65175 0.16237,-3.17137 0.16237,1.38747 0.16237,-0.19821 0.48712,-8.06056 0.16237,0.59463 0.16237,0.13214 0.16237,-0.99105 0.16237,1.58568 0.32474,-2.11425 0.16237,0.66071 0.16237,-0.79285 0.32474,0.33035 0.32474,1.71783 0.16237,-1.45354 0.32475,2.6428 0.16237,-0.0661 0.16237,0.52856 0.16237,-1.38747 0.16237,0.13214 0.16237,1.18926 0.16237,-0.46249 0.48711,6.8713 0.16237,0.99106 0.64948,-6.07846 0.48711,3.36958 0.16238,0.39642 0.16237,-0.52856 0.64948,5.35168 0.16237,-1.38747 0.16237,0.33035 0.16237,-0.52856 h 0.16237 l 0.16237,1.45354 0.16237,0.13214 0.32474,1.25534 0.16237,0.52856 0.16237,1.25533 0.32475,-2.37852 0.16237,0.0661 0.16237,-0.79285 0.32474,1.91604 0.16237,0.39642 0.16237,1.25533 0.16237,-0.19821 0.16237,0.59464 0.16237,-0.52857 0.16237,-0.92498 0.16237,1.25534 0.16237,-0.26429 0.16237,0.0661 0.32474,2.11425 0.16237,0.6607 0.16238,-0.39642 0.32474,0.13214 0.16237,-0.46249 0.16237,2.04818 0.16237,0.46249 0.16237,-0.0661 0.32474,4.36063 0.16237,0.19821 0.16237,0.59463 0.32474,-4.09635 h 0.16237 l 0.48711,-2.51067 0.32475,2.97316 0.48711,-2.90709 0.32474,-1.25533 0.48711,-5.35169 0.16237,-1.45354 0.16237,2.18032 0.16237,0.6607 0.16237,-1.84997 0.16237,-0.13214 0.16237,-0.85891 0.16237,-1.7839 0.32474,0.52857 0.48712,-4.29457 0.32474,1.18927 0.32474,2.11424 0.16237,-1.51961 0.48711,-0.79284 0.16237,2.90708 0.16237,0.79285 0.16237,-0.13214 0.16237,1.84996 0.32474,-1.45354 0.32475,2.51067 0.32474,3.10529 0.16237,-0.13214 0.16237,0.0661 0.32474,3.43566 0.16237,-0.0661 0.16237,0.72678 0.16237,2.11424 0.16237,-1.3214 0.16237,-2.51067 0.32474,-0.0661 0.16237,-1.18926 0.16238,-0.13214 0.16236,0.72677 0.16238,-0.59463 0.16237,1.18926 0.16237,2.84102 0.16237,0.19821 0.16237,-0.13214 0.16237,0.52856 0.48711,-2.77495 0.48711,3.89815 0.32474,-3.1053 0.16237,0.0661 0.32474,5.15347 0.48712,-5.0874 0.32474,3.03923 0.16237,-0.26429 0.16237,0.33036 0.16237,0.72677 0.32474,3.30351 h 0.16237 l 0.16237,-0.39642 0.32474,2.70888 0.32474,-2.24639 0.48712,0.0661 0.32474,1.65175 0.16237,-0.72677 0.48711,-6.01239 0.32474,1.05713 0.64948,-3.83208 0.16237,0.52857 0.16237,2.44459 h 0.16237 l 0.16237,-0.72677 0.16238,0.19821 0.48711,-3.1053 0.32474,-4.22849 0.16237,-0.46249 0.81185,-5.28562 0.48711,-4.36063 0.16237,-1.12319 0.16237,-0.13214 0.16237,-0.79285 0.16238,0.13214 0.32474,3.50172 0.16237,-0.0661 0.16237,1.91604 0.16237,-0.0661 0.16237,-1.51961 0.16237,0.6607 0.32474,3.30351 0.16237,-0.26428 0.16237,-0.52857 0.16237,1.98211 0.16237,0.0661 0.16237,-1.25533 0.48712,3.43565 0.16237,-0.72677 0.16237,0.92498 0.16237,2.37853 0.32474,-0.59464 0.16237,0.13214 0.16237,-0.85891 0.81185,7.13558 0.48711,-1.91603 0.32474,1.91603 0.16238,-0.19821 0.16237,-0.6607 0.16237,-0.13214 0.32474,1.58568 0.32474,-1.25533 0.16237,0.0661 0.32474,-3.63386 0.16237,-0.0661 0.16237,-0.85891 0.48711,2.70888 0.16237,-0.72678 0.16237,-1.65175 0.32475,2.11424 0.32474,-1.51961 0.32474,-3.17137 0.16237,0.79284 0.32474,-3.56779 0.16237,-0.33035 0.16237,-0.0661 0.32474,0.6607 0.32474,2.57674 0.16237,-0.6607 0.16237,0.72677 0.32475,-0.26428 0.32474,2.31246 0.16237,0.72677 0.16237,-0.0661 0.16237,-1.7839 0.16237,0.26428 0.16237,0.72678 0.32474,-2.4446 0.16237,0.52856 0.32474,-3.36958 0.32474,0.72677 0.16237,-0.52856 0.32475,2.31246 0.16237,-1.71783 0.32474,-0.33035 0.16237,0.59463 0.32474,4.36064 0.16237,-0.0661 0.16237,-0.79285 0.16237,-2.24638 0.32474,-0.6607 0.16237,-1.45355 0.16237,0.33035 0.16237,-0.0661 0.16237,0.13214 0.16237,0.79284 0.32475,-2.04817 0.16237,0.26428 0.16237,-0.26428 0.32474,1.05712 0.16237,-0.0661 0.16237,-0.26428 0.16237,-0.72677 0.16237,0.6607 0.16237,-0.26428 0.16237,-1.18926 0.32474,1.78389 0.32474,2.18032 0.16237,-0.26428 0.32475,3.17137 0.16237,-0.72678 0.64948,3.50173 0.16237,-1.18927 0.32474,-5.35168 0.16237,0.13214 0.32474,1.18926 0.16237,-0.26428 0.32474,-3.17137 0.32474,4.95526 0.16237,-0.13214 0.16238,-1.25533 0.16237,1.91604 0.16237,0.13214 0.16237,-2.11425 0.16237,0.39642 0.32474,-2.24639 0.32474,5.88025 0.16237,-0.0661 0.16237,1.58569 0.16237,-0.0661 0.16237,-0.99106 0.32474,1.1232 0.48712,-3.50172 0.16237,-0.33035 0.16237,1.25533 0.16237,0.33035 0.64948,-3.69993 0.32474,2.57674 0.16237,-0.46249 0.32474,-2.90709 0.32474,-2.31246 0.16237,1.3214 0.16237,-0.26428 0.16237,-0.85891 0.16238,0.13214 0.32474,-2.04818 0.32474,-0.92498 0.16237,1.12319 0.32474,-1.45354 0.16237,0.92498 0.16237,-1.12319 0.16237,0.0661 0.16237,0.39642 0.16237,-0.19821 0.32474,2.04818 0.16237,0.13214 0.32475,-1.51962 0.81185,4.36064 0.32474,3.23744 0.16237,-0.19822 0.16237,-0.46249 0.16237,0.59464 0.32474,3.766 0.16237,-0.33035 0.16237,-0.92499 0.32474,-4.82312 0.16237,2.31246 0.16238,-0.52857 0.16237,0.33035 0.16237,2.97316 0.32474,-1.18926 0.16237,0.92498 0.32474,-0.85891 0.16237,-1.12319 0.32474,0.46249 0.16237,-2.31246 0.16237,0.52856 0.16237,-0.39642 0.16237,-2.4446 0.32474,1.91604 0.16238,-0.33035 0.16237,-0.99105 0.16237,1.84996 0.16237,4.09635 0.32474,-2.11424 0.16237,1.71782 0.32474,-0.79284 0.16237,1.18926 0.16237,0.0661 0.16237,-0.85891 0.16237,0.19821 0.16237,2.4446 0.16237,-1.12319 0.16237,-3.17137 0.32474,2.44459 0.16238,-0.52856 0.16237,0.46249 0.16237,1.18927 0.16237,0.0661 0.16237,-1.71783 0.16237,-0.46249 0.16237,0.0661 0.32474,-1.9821 0.16237,-0.19822 0.16237,0.39643 0.16237,-0.33036 0.32474,-2.44459 0.16237,0.13214 0.32474,-2.31246 0.16238,0.85891 0.16237,-0.13214 0.16237,0.72678 0.16237,1.25533 0.16237,-0.92498 0.16237,0.52856 0.16237,1.91603 0.48711,-1.05712 0.16237,-0.33035 0.16237,0.33035 0.32474,2.04818 0.16237,-0.52856 0.32474,0.26428 0.16238,-1.51962 0.32474,1.12319 0.16237,-1.91603 0.16237,0.6607 0.16237,1.71783 0.16237,-0.0661 0.16237,-0.99106 0.16237,-1.9821 0.32474,-4.8892 0.32474,2.77495 0.48711,-3.50172 0.16237,-0.6607 0.16238,0.0661 0.16237,1.3214 0.16237,2.24639 0.16237,0.13214 0.48711,-1.58569 0.16237,1.91604 0.16237,-0.79284 0.16237,-1.45355 0.16237,0.79285 0.16237,-0.59464 0.16237,0.13214 0.81185,9.11769 0.16237,2.18032 0.16238,0.0661 0.16237,1.84996 0.32474,6.54095 0.16237,-0.52856 0.16237,0.26428 0.16237,0.66071 0.16237,-1.84997 0.16237,0.92498 0.16237,3.30351 0.16237,-0.46249 0.48711,-4.29456 0.16237,2.24639 0.16237,0.6607 0.16237,-1.18927 0.16238,0.72678 0.32474,-0.33036 0.16237,0.99106 0.32474,-2.4446 0.16237,2.90709 0.16237,-0.46249 0.16237,-0.92499 0.16237,1.7839 0.16237,-0.26428 0.16237,0.46249 0.16237,0.92498 0.32474,-5.48382 0.16237,-0.92499 0.16237,-3.1053 0.16238,-0.52856 0.16237,0.79285 0.16237,-1.7839 0.16237,-0.0661 0.16237,0.99105 0.16237,-0.39642 0.16237,1.38748 h 0.16237 l 0.32474,-8.32485 0.97422,-9.11769 h 0.16237 l 0.16237,1.84997 0.16238,-1.38748 0.16237,-2.77494 0.16237,-0.46249 0.16237,0.13214 0.16237,-0.92499 0.48711,-7.06951 0.16237,0.59463 0.16237,-0.72677 0.16237,-1.51961 0.81185,7.46593 0.16237,-0.39642 0.16237,-1.18927 0.16238,-2.18031 0.16237,-0.0661 0.32474,4.55884 0.16237,1.18926 0.16237,0.19822 0.16237,-0.4625 0.32474,1.65176 0.16237,0.46249 0.16237,2.70888 0.32474,1.58568 0.16237,2.37853 0.16237,-0.19821 0.16237,0.33035 0.64949,7.39986 0.32474,0.85892 0.32474,-3.69994 0.32474,3.76601 0.32474,-1.1232 0.32474,-1.38747 0.16237,0.13214 0.16237,0.59463 0.16237,-0.46249 0.16237,0.19821 0.16237,1.7839 0.16238,0.33035 0.32474,-0.52857 0.16237,0.0661 0.16237,0.66071 0.16237,0.0661 0.32474,2.4446 0.16237,-0.26429 0.16237,0.52857 0.16237,1.65175 0.16237,-0.99105 0.16237,-2.84102 0.16237,-0.59463 0.16237,0.79284 0.16237,-0.19821 0.32475,1.3214 0.16237,-0.92498 0.32474,0.72677 0.32474,0.85891 0.32474,-5.15347 0.16237,1.84996 0.16237,0.13214 0.16237,-2.70887 0.32474,-1.91604 0.16237,-2.37853 0.16237,-0.26428 0.16237,0.72678 h 0.16237 l 0.32475,0.92498 0.64948,3.766 0.16237,0.6607 0.16237,0.13214 0.16237,-0.59463 0.32474,-2.64281 0.16237,0.59463 0.32474,2.4446 0.16237,0.72677 0.16237,0.0661 0.16237,-0.19821 0.32475,1.38748 0.16237,-0.33035 0.48711,-3.69994 0.32474,-1.18926 0.32474,2.84102 0.16237,0.33035 0.64948,4.16242 h 0.16237 l 0.16237,2.31246 0.32474,1.12319 0.16238,0.99106 0.16237,-1.32141 0.16237,-0.26428 0.16237,-1.45354 0.16237,-0.39642 0.16237,1.78389 0.16237,-2.4446 0.16237,0.19822 0.16237,4.4267 0.16237,0.39642 h 0.16237 l 0.16237,0.59463 0.16237,-1.18926 0.16237,-0.33035 0.16237,-0.66071 0.48712,-6.80523 0.32474,-1.71782 0.16237,0.19821 0.16237,1.05712 0.32474,3.03923 0.16237,-1.18926 0.16237,0.26428 0.16237,-0.13214 0.32474,-4.16242 0.32474,-6.47488 0.16237,-1.32141 0.16237,0.26428 0.32474,3.83208 0.32475,3.23743 0.16237,-0.26428 0.64948,-6.93737 0.16237,-3.36958 0.16237,-0.33035 0.16237,2.31246 0.32474,-0.33035 0.16237,0.99105 0.48711,-4.49277 0.48712,0.59463 0.16237,1.12319 0.32474,-2.31245 0.32474,2.24638 0.16237,0.52856 0.16237,1.1232 0.16237,-1.32141 0.16237,0.46249 0.32474,3.63387 0.32474,1.71782 0.32474,5.08741 0.16237,-0.4625 0.16238,0.52857 0.16237,-0.52857 0.32474,-3.36958 0.16237,0.13215 0.16237,-0.4625 0.16237,-1.58568 0.64948,4.88919 0.16237,-0.52856 0.16237,-1.12319 0.16237,1.05712 0.16237,-0.85891 0.16237,0.72677 0.16237,1.38748 0.16238,-1.51962 0.16237,0.13214 0.16237,0.59463 h 0.16237 l 0.16237,-0.13214 0.48711,-3.69993 0.16237,-1.18926 0.16237,1.51961 0.32474,-2.31245 0.32474,6.07845 h 0.16237 l 0.32474,3.50172 0.32475,-5.48382 0.32474,0.39642 0.16237,-0.0661 0.16237,1.51961 h 0.16237 l 0.16237,-1.45354 0.16237,0.0661 0.16237,0.72677 0.32474,-3.30351 0.16237,1.58569 0.16237,-1.32141 0.16237,-3.89814 0.16237,0.33035 0.16237,1.58569 0.16237,-0.52856 0.32475,-2.24639 0.16237,1.91604 0.32474,5.81417 0.32474,-3.03923 0.32474,4.16242 0.16237,-0.0661 0.16237,1.32141 0.16237,-0.26428 0.32474,2.51067 0.16237,-1.65176 0.16237,1.05712 0.16237,0.26428 0.16238,-1.45354 0.16237,2.77495 0.16237,0.46249 0.16237,-2.18032 0.32474,4.16243 0.16237,0.19821 0.16237,2.11424 0.16237,0.59463 h 0.16237 l 0.48711,1.98211 0.16237,-0.6607 0.16237,0.19821 0.16237,1.18926 0.64949,-3.56779 0.16237,0.19821 0.16237,-0.13214 0.64948,-5.28561 0.16237,0.26428 0.32474,4.36063 0.16237,-0.13214 0.16237,-1.71783 0.16237,-0.52856 0.16237,-0.13214 0.16237,-1.38747 0.16237,1.18926 0.16237,2.18032 0.16238,0.52856 0.16237,1.7839 0.16237,-0.0661 0.64948,-7.13559 0.16237,0.72678 0.16237,-0.59464 0.32474,4.95527 0.32474,-1.84997 0.32474,-0.72677 0.32474,-6.47488 0.16238,0.85891 0.32474,-1.58568 0.16237,2.97316 0.16237,-0.33035 0.16237,-0.85891 0.32474,2.04817 0.32474,-3.03923 0.16237,0.59463 0.16237,-1.45354 0.16237,-2.64281 0.16237,0.72677 0.32474,-2.6428 0.16237,2.04817 0.16238,-1.45354 0.16237,0.59463 0.16237,1.98211 0.16237,-1.45355 0.16237,1.3214 0.16237,2.70888 0.16237,-0.26428 h 0.16237 l 0.16237,0.26428 0.48711,-2.77495 0.32474,-1.05712 0.32474,0.33035 0.16237,-0.39642 0.16238,0.52856 0.32474,3.43565 0.16237,0.39642 0.16237,0.99106 0.16237,-0.0661 0.16237,-2.11425 0.16237,1.12319 0.32474,5.48383 0.16237,0.59463 0.16237,-0.79284 0.16237,-1.45354 0.16237,0.0661 0.16237,-0.59464 0.16237,-2.31245 0.16237,-0.52856 0.48712,3.50172 0.32474,3.766 0.16237,2.4446 0.32474,1.78389 0.16237,1.12319 0.16237,0.33035 0.16237,2.18032 0.16237,-0.52856 0.32474,-4.29456 0.32474,-3.36958 0.16237,0.46249 0.16237,-0.85891 0.16237,-0.13214 0.32475,-3.30351 0.16237,2.44459 0.16237,-0.19821 0.16237,1.7839 0.16237,4.62491 0.16237,-0.39642 0.16237,0.19821 0.16237,3.17137 0.16237,-2.11425 0.32474,-8.32484 0.16237,-1.91604 0.16237,0.39642 0.16237,2.11425 0.48711,-5.41776 0.32475,1.45355 0.16237,-0.52856 0.16237,-1.32141 0.16237,0.52856 0.16237,1.1232 0.32474,4.03028 h 0.16237 l 0.16237,-0.79284 0.48711,-5.74811 0.48711,-8.12663 0.16238,-0.0661 0.32474,2.18031 0.48711,2.84102 0.64948,8.45699 h 0.16237 l 0.32474,3.43565 0.48711,-4.95527 0.16237,-3.50172 0.16237,-0.79284 0.16237,0.79284 0.32475,-2.84102 0.16237,0.0661 0.32474,2.37853 0.32474,2.4446 0.16237,1.78389 0.16237,0.26428 0.16237,-0.19821 0.16237,1.51962 0.81186,13.0819 0.64948,-8.32485 0.16237,-3.43565 0.16237,-0.46249 0.32474,-2.31246 0.32474,2.04818 0.16237,-1.12319 h 0.16237 l 0.32474,3.50172 0.32474,0.33035 0.32474,5.21954 0.81186,-15.39435 0.48711,-5.35169 0.16237,0.6607 0.16237,2.04818 0.16237,0.46249 0.32474,-1.38747 0.16237,-0.0661 0.16237,0.85891 0.16237,1.84996 0.32474,1.38748 0.32475,4.95526 0.16237,1.32141 0.16237,-0.13214 0.32474,-5.28562 0.32474,-2.97316 0.32474,-0.85891 0.16237,-0.46249 0.16237,0.52856 0.16237,-0.39642 0.16237,0.19821 0.16237,1.58568 0.16237,0.46249 0.16237,-0.0661 0.16237,0.79285 0.32475,5.21954 0.32474,4.8892 0.32474,1.51961 0.16237,2.04818 0.16237,0.52856 0.32474,-5.15348 0.16237,0.13214 0.32474,-3.63386 0.16237,0.39643 0.32474,-1.91604 0.48712,6.07846 0.16237,-0.72677 0.32474,3.50172 0.16237,-0.59464 0.32474,4.8892 0.32474,-2.11425 0.32474,-5.41775 0.81185,-19.22643 0.64949,4.4267 0.16237,-0.13214 0.48711,7.73021 0.48711,5.68204 0.16237,0.99105 0.16237,-0.6607 0.32474,-1.91603 0.16237,0.46249 h 0.16237 l 0.32475,-2.70888 0.16237,-0.19821 0.32474,1.78389 0.32474,0.99106 0.16237,-0.39642 0.16237,0.26428 0.16237,0.99105 0.16237,-0.46249 0.16237,0.33035 0.32474,3.96421 0.16237,-1.12319 0.48712,-5.28562 0.32474,-3.03923 0.16237,-2.31245 0.16237,-0.19821 0.16237,0.46249 0.48711,-4.55885 0.32474,1.25534 0.16237,-0.0661 0.16237,-1.05712 0.32474,2.84101 0.32474,-1.12319 0.16237,-0.0661 0.16237,-0.39642 0.16238,-1.45355 0.64948,-14.13902 0.16237,0.0661 0.32474,-5.0874 0.16237,0.6607 0.32474,3.1053 0.32474,-1.84997 0.64948,8.06057 0.16237,-0.99106 0.81186,-9.84446 0.32474,-0.46249 0.16237,-1.25533 0.16237,0.19821 0.16237,0.59463 0.32474,4.4267 0.16237,1.25534 0.32474,4.95526 0.16238,0.19821 0.32474,-4.16242 0.32474,2.37853 0.32474,6.07846 0.16237,-0.0661 0.16237,0.0661 0.16237,2.31245 0.16237,0.6607 0.16237,-0.6607 0.16237,0.72678 0.64948,5.48382 0.16237,0.85891 0.32474,5.68204 0.16238,-0.0661 0.16237,2.90709 0.16237,0.46249 0.32474,-2.57674 0.32474,-2.44459 0.16237,-0.52857 0.32474,-3.89814 0.16237,0.13214 0.16237,1.45355 0.16237,-1.38748 0.16237,0.13214 0.16237,1.58569 0.32474,-3.63386 h 0.16238 l 0.16237,-0.99106 0.16237,0.4625 0.32474,1.71782 0.16237,-1.18926 0.16237,-2.11425 0.16237,-0.52856 0.32474,-3.43565 0.16237,0.26428 0.16237,-0.19821 0.16237,0.59463 0.16237,1.71783 0.16237,0.19821 0.16237,-0.72678 0.16237,0.72678 0.16238,1.38747 0.16237,-0.46249 0.16237,0.33035 0.16237,0.92498 0.32474,-3.43565 0.16237,-0.33035 0.16237,-2.18031 h 0.16237 l 0.16237,0.85891 0.16237,-0.39642 0.48711,4.82312 0.16237,-0.13214 h 0.16237 l 0.16237,1.51962 0.16237,-0.39643 0.16238,-1.65175 0.32474,2.64281 0.16237,-0.85891 0.16237,-0.19822 0.32474,2.97316 h 0.16237 l 0.32474,0.85892 0.16237,0.46249 0.48711,6.40881 h 0.16237 l 0.16237,-1.91604 0.16238,-0.59463 0.16236,0.13214 0.32475,-3.83207 0.16237,0.33035 0.16237,-0.26428 0.32474,-1.51962 0.16237,0.33035 0.48711,4.55885 0.81185,-3.30351 0.32474,1.78389 0.32475,4.2285 0.16237,-0.66071 0.32474,4.16243 0.32474,-2.64281 0.16237,-0.52856 0.16237,-1.65176 0.16237,1.18927 h 0.16237 l 0.16237,-2.84102 0.16237,-0.26428 0.16237,0.52856 0.16237,-0.0661 0.16237,0.26428 0.32474,-3.69993 0.48712,2.97316 0.16237,-0.85892 0.16237,-2.04817 0.16237,0.26428 0.16237,-0.79284 0.48711,-8.52306 0.32474,1.45355 0.16237,-0.4625 0.32474,3.23744 0.16237,0.52857 0.48712,2.6428 0.16237,-0.85891 0.16237,0.46249 0.16237,-0.72677 0.16237,-2.18032 0.16237,1.58569 0.16237,-0.85891 0.16237,-3.36958 0.16237,0.19821 0.16237,1.18926 0.16237,2.51067 0.16237,0.6607 0.16237,-2.11425 0.16237,1.18927 0.16237,2.04817 0.48712,10.24088 0.32474,1.51962 0.32474,-2.70888 0.16237,-0.92498 0.16237,0.0661 0.16237,-0.39642 0.16237,-0.85892 0.32474,4.2285 0.16237,-2.97316 0.16237,0.19821 0.16237,1.84996 0.32474,1.18927 0.16238,-0.33035 0.16237,-1.18927 0.32474,2.24639 0.16237,-0.72677 0.32474,1.18926 0.32474,-2.57674 0.32474,-2.57674 0.32474,2.04818 h 0.16237 l 0.32474,1.3214 0.16237,-1.05712 0.16237,-0.13214 0.32475,2.77495 0.32474,1.84997 0.32474,-2.57674 0.32474,-2.4446 0.16237,0.0661 0.16237,-0.46249 0.16237,0.6607 0.64948,5.68204 0.16237,-0.72677 0.32474,1.84996 0.16238,0.0661 0.48711,5.08741 0.16237,-0.0661 0.81185,-5.88025 0.16237,1.18926 0.16237,-0.52856 0.16237,0.59463 0.16237,1.98211 0.16237,0.33035 0.64949,6.60702 0.32474,1.12319 0.16237,1.1232 0.16237,-0.19821 0.16237,-1.38748 0.32474,-5.68204 0.16237,-0.52856 0.16237,-1.91603 0.64948,6.07846 0.32474,-4.2285 0.64949,4.55885 0.32474,0.26428 0.32474,-3.69993 0.16237,-0.66071 0.16237,-0.0661 0.32474,2.51067 0.16237,-0.52856 0.32474,1.38747 0.32474,-3.1053 0.16238,1.32141 0.16236,-1.12319 0.16238,-0.19822 0.16237,0.33036 0.16237,-1.71783 0.16237,-0.26428 0.16237,0.0661 0.16237,-0.85891 0.48711,2.18031 0.64948,-3.50172 0.32474,-3.23744 0.16237,1.18927 0.16238,0.26428 0.16237,-0.46249 0.16237,-1.58569 0.16237,-2.84102 0.16237,-0.26428 0.32474,6.2106 0.16237,0.46249 0.48711,5.88025 0.16237,0.33035 0.16237,1.38748 0.16237,0.33035 0.16237,2.04817 0.16237,-0.59463 0.16237,-1.9821 0.32474,4.88919 0.16238,-2.18032 0.16237,0.52856 0.32474,2.11425 0.32474,2.70888 0.16237,-0.39642 0.16237,-1.7839 0.16237,-0.0661 0.32474,-3.1053 0.32474,3.36958 0.64949,0.39642 0.32474,-2.90708 0.16237,0.33035 0.32474,-4.8892 0.16237,-0.13214 0.16237,-1.25533 0.16237,0.13214 0.32474,-2.04818 0.16237,1.38748 0.16237,-0.59464 0.81186,-6.67309 0.16236,-3.3035 0.16238,0.0661 0.16237,-0.19821 0.32474,-1.91603 0.16237,-1.91604 0.16237,-0.39642 0.32474,0.59463 0.32474,3.83207 0.16237,-1.84996 0.16237,-0.19821 0.16237,0.13214 0.48711,-4.95527 0.32475,-3.63386 0.16237,-0.92498 0.16237,-0.13214 0.48711,6.80523 0.32474,1.12319 0.16237,-0.6607 0.32474,-1.58568 0.32474,-1.38748 0.16237,0.52856 0.16237,-0.85891 0.16237,-1.58568 0.16237,-0.19821 0.16237,1.18926 0.32475,2.97316 0.16237,1.18926 0.16237,2.04818 0.16237,-0.59463 0.32474,-2.4446 0.16237,0.19821 0.16237,-1.05712 0.81185,-12.15692 0.16237,0.26428 0.16238,-0.92498 0.32474,-6.34274 0.32474,4.29456 h 0.16237 l 0.16237,1.65176 0.16237,0.39642 0.16237,-1.1232 0.16237,-0.19821 0.16237,-0.79284 0.32474,-2.70888 0.16237,-0.19821 0.32474,-2.31245 0.48711,8.06056 0.32475,2.11425 0.16237,0.0661 0.16237,-0.33035 0.16237,-1.25534 0.16237,0.33035 0.32474,2.57674 0.32474,-0.79284 0.32474,0.39642 0.48711,1.7839 0.64949,7.06951 0.32474,-2.37853 0.16237,1.3214 0.16237,-0.13214 0.16237,-1.9821 0.16237,-0.52856 1.29896,9.84445 0.16237,-2.31245 h 0.16238 l 0.16236,-0.13214 0.16238,0.33035 0.16237,1.51961 0.16237,-0.13214 0.16237,-0.39642 0.16237,-0.85891 0.16237,-0.0661 0.16237,1.38747 0.16237,0.19821 0.16237,0.46249 0.16237,-0.0661 0.16237,-0.52856 0.16237,0.66071 0.32474,-1.91604 0.32475,0.33035 0.32474,2.4446 0.32474,-1.58569 0.32474,1.98211 0.16237,-0.46249 0.32474,-4.49278 0.16237,-0.52856 0.16237,0.6607 0.32474,-3.56779 0.16237,0.0661 0.16237,-0.19821 0.32474,-2.11424 0.16237,0.33035 0.16237,-0.6607 0.16238,-2.4446 0.16237,0.46249 0.16237,1.58568 0.16237,-1.05712 0.16237,0.13214 0.16237,-0.52856 0.16237,-1.3214 0.16237,0.46249 0.32474,-3.83207 0.32474,1.65175 0.48711,-2.51067 0.32474,2.77495 0.16238,1.25534 0.32474,-1.84997 0.16237,0.6607 0.16237,-0.59463 0.16237,0.0661 0.64948,3.96421 0.16237,0.26428 0.64948,4.42671 0.16237,-0.66071 0.16237,-0.13214 0.16238,-1.18926 0.48711,-6.40881 0.16237,-1.3214 0.16237,0.0661 0.48711,3.43565 0.32474,-2.84102 0.16237,0.33035 0.32474,-2.90709 0.16237,0.13214 0.16237,-0.26428 0.16237,0.19821 0.16237,-0.99105 0.32475,-4.29456 0.16237,0.39642 0.16237,1.25533 h 0.16237 l 0.16237,-0.39642 0.48711,3.83207 0.16237,1.51962 0.16237,-0.72678 0.16237,0.39643 0.32474,3.43565 0.16237,-0.33035 0.16237,0.6607 0.32474,5.0874 0.16238,2.90709 0.16237,-0.46249 0.16237,0.19821 0.32474,5.94632 0.48711,-4.75706 0.32474,0.85892 0.16237,-1.7839 0.16237,0.52856 0.16237,1.84997 0.16237,-0.0661 0.16237,0.46249 0.16238,-0.0661 0.16236,-1.71783 0.16238,-0.13214 0.16237,0.59463 0.16237,-0.26428 0.16237,0.19821 0.16237,-0.33035 0.16237,-0.59463 0.32474,0.99105 0.16237,1.25534 0.16237,0.19821 0.16237,-2.31246 0.16237,-0.59463 0.16237,0.59463 0.16237,-0.59463 0.32474,2.70888 0.16237,-0.52856 0.32475,-2.77495 0.32474,1.91603 0.32474,-2.97315 0.16237,1.3214 0.16237,0.13214 0.16237,-0.59463 0.48711,-3.69993 0.32474,2.6428 0.16237,-0.33035 0.16237,0.99106 0.16237,2.11424 0.16237,-0.13214 0.32475,1.98211 0.32474,-4.55885 0.16237,-0.39642 0.16237,-1.51961 0.16237,0.0661 0.16237,-0.92498 0.16237,-2.04818 0.16237,-0.19821 0.16237,0.33035 h 0.16237 l 0.16237,-1.12319 0.16237,-2.31246 0.16237,-0.52856 0.16237,-0.13214 0.32475,-4.09635 0.16237,0.0661 0.32474,-3.69994 0.16237,-1.3214 0.16237,-2.64281 0.16237,0.46249 0.16237,1.32141 0.16237,0.19821 0.16237,-0.52856 0.16237,-1.38748 0.32474,3.96422 0.16237,-1.18927 0.32474,0.13214 0.32474,4.03028 0.16238,-2.77494 0.16237,0.72677 0.16237,5.5499 0.32474,3.1053 0.48711,7.86235 0.16237,1.78389 0.16237,-0.85891 0.32474,3.17137 0.16237,-0.19821 0.64948,10.90158 0.16238,-0.46249 0.16237,1.32141 h 0.16237 l 0.16237,-1.98211 0.16237,0.72677 0.16237,-0.59463 0.16237,0.52856 0.16237,3.23744 0.16237,0.33035 0.16237,-0.13214 0.16237,-0.39642 1.29897,-15.39436 0.16237,-0.79284 0.16237,1.7839 0.16237,0.39642 0.32474,4.4267 0.16237,-0.26428 0.16237,0.92498 0.16237,-1.12319 0.81185,-11.43014 0.16237,-1.65176 0.16237,-0.13214 0.16238,-1.3214 h 0.16237 l 0.48711,7.79628 0.16237,-0.46249 0.32474,-4.49278 0.32474,-2.31245 0.16237,-0.19821 0.16237,-2.04818 0.16237,-0.39642 0.32474,6.01239 0.48711,3.69993 h 0.16237 l 0.48712,4.03028 0.16237,0.79284 0.16237,-0.59463 0.16237,-1.18926 0.97422,-13.94081 0.16237,-0.85892 0.16237,0.39643 0.81186,8.06056 0.16237,0.33035 0.16237,0.99105 0.16237,-0.92498 0.32474,5.15348 0.32474,-6.67309 0.16237,1.84996 0.16237,-1.84996 0.16237,-3.63387 0.48711,-3.50172 0.16237,-1.45354 0.16237,0.26428 0.48712,4.4267 0.32474,2.70888 0.16237,0.33035 0.48711,1.84997 0.32474,3.23744 0.16237,0.13214 0.32474,4.75705 0.16237,0.92499 0.16237,1.91603 h 0.16237 l 0.64949,5.21955 0.16237,-0.0661 0.16237,-0.92499 0.16237,1.05713 0.48711,-4.62492 0.32474,-4.36063 0.16237,0.13214 0.16237,-0.13214 0.16237,0.13214 0.32474,-3.1053 0.16237,1.25534 0.48712,-3.43566 0.32474,2.24639 0.32474,-2.37853 0.16237,0.33036 0.16237,-0.33036 0.16237,0.79285 0.16237,1.78389 0.16237,0.39642 0.32474,-3.83207 0.48711,-6.54095 h 0.16237 l 0.16237,-3.36958 0.16238,-0.99105 0.16237,1.65175 0.32474,-5.88024 0.16237,-0.39642 0.16237,-0.85892 0.16237,0.0661 0.48711,-5.35168 0.16237,0.39642 0.81185,10.83551 0.32475,5.41776 0.16237,0.0661 0.32474,1.78389 0.32474,-2.24638 0.16237,0.72677 0.16237,-0.26428 0.16237,-0.6607 0.32474,2.77494 0.16237,0.13214 0.32474,2.90709 0.16237,1.65176 0.16237,0.39642 0.16237,-0.13214 0.64949,4.55884 0.16237,-1.12319 h 0.16237 l 0.32474,4.75705 0.32474,7.13558 0.16237,-1.3214 0.16237,-0.33035 0.16237,-0.6607 0.16237,-1.32141 0.16237,-0.0661 0.32475,-4.03028 0.16236,0.0661 0.16238,0.79284 0.16237,-0.0661 0.64948,-5.68203 0.16237,0.0661 0.16237,0.92498 0.32474,-3.63386 0.16237,0.26428 0.16237,-0.0661 0.16237,0.46249 0.81186,-5.35169 0.32474,-4.16242 0.16237,-0.99105 0.16237,-2.97316 0.16237,0.59463 0.32474,-0.99105 0.16237,3.1053 0.16237,-0.39642 0.16237,0.13214 0.16237,3.23744 0.32474,1.91603 0.32474,-0.72677 0.32474,4.09635 0.16238,-0.13214 0.16237,1.1232 v 0"
           style="fill:none;stroke:#000000;stroke-width:0.5;stroke-linecap:square;stroke-linejoin:round;stroke-miterlimit:10;stroke-dasharray:none;stroke-opacity:0.3"
           transform="matrix(1.3333333,0,0,-1.3333333,0,295.68)"
           clip-path="url(#clipPath3)" />
        <path
           id="path4"
           d="m 231.28876,151.02194 0.32474,-10.70337 0.32474,9.11769 0.16237,-0.79285 0.32474,1.65176 0.16237,0.46249 0.32475,4.62491 0.16237,-0.13214 0.64948,-13.14797 0.16237,-0.72677 0.16237,0.13214 0.16237,-1.78389 0.16237,-0.19821 0.64948,12.55333 0.16237,0.72678 0.32474,-1.91604 0.32475,-7.59807 0.16237,-0.72678 0.32474,-7.33379 0.32474,-4.22849 0.16237,0.39642 0.32474,4.8892 0.97422,31.97797 0.32475,5.41776 0.16237,-1.12319 0.64948,-17.83896 0.16237,-2.24639 0.16237,1.91604 0.16237,0.46249 0.16237,-0.52856 0.32474,9.71232 0.48711,15.79078 0.48712,2.64281 0.16237,-0.26429 0.48711,-11.56228 0.48711,-6.07846 0.16237,0.0661 0.32474,8.85341 0.16237,-0.13214 0.16237,0.6607 0.16237,2.18032 0.64948,15.46042 0.32475,1.7839 0.97422,-18.56573 0.16237,-3.30351 0.16237,0.13214 0.32474,-1.78389 0.16237,0.99105 0.32474,0.39642 0.16237,1.58569 0.32475,6.47488 0.32474,8.98554 0.16237,0.33035 0.32474,4.69099 0.32474,-5.02134 0.16237,-1.65175 0.32474,-6.07846 0.16237,-1.18926 0.32474,-4.42671 0.16237,1.51962 0.16237,0.46249 0.16237,-1.84997 0.16237,0.52856 0.32475,9.91053 0.32474,10.37303 0.16237,-1.38748 0.32474,-4.75705 0.32474,-2.77495 0.32474,-6.07846 0.64948,-13.41225 0.32475,5.21955 0.64948,16.71576 0.16237,0.6607 0.16237,-1.12319 0.16237,2.6428 0.32474,11.43015 0.16237,-2.57674 0.32474,-9.18376 0.16237,-3.56779 0.32474,-11.298 0.16237,-1.38748 0.16238,-0.13214 0.16236,2.04818 0.32475,10.83551 0.16237,1.25534 0.32474,7.73021 0.16237,1.3214 0.81185,17.17826 0.16237,-1.91604 0.32474,-5.41776 0.48711,-8.78733 0.16238,0.19821 0.16237,0.92498 0.16237,-0.19821 0.16237,-1.05712 0.32474,-4.49278 0.16237,0.13214 0.32474,6.67309 0.32474,7.39986 0.16237,2.31246 0.16237,0.39642 0.32474,-3.56779 0.81186,-20.87818 0.32474,-3.89814 0.64948,7.46593 0.64948,18.10323 0.32474,4.69099 0.16237,-0.46249 0.64949,-9.05162 0.32474,-2.51067 0.16237,0.19821 0.16237,0.52856 0.16237,-0.19821 0.16237,0.85892 0.16237,-0.13214 0.16237,-1.32141 0.16237,0.99106 0.32474,5.41775 0.16237,0.13214 0.16237,-0.33035 0.16237,0.26428 0.64949,-8.1927 0.48711,-7.92843 0.32474,0.39642 0.32474,-2.31245 0.32474,3.17137 0.32474,-2.64281 0.48711,2.31246 0.16238,-0.26428 0.32474,-3.69994 0.48711,-7.39986 0.64948,-8.85341 h 0.16237 l 0.16237,1.58569 0.32474,4.95526 0.16237,-0.19821 0.48711,4.09636 0.32475,-1.32141 0.16237,1.05713 0.16237,-1.05713 0.32474,-4.75705 0.16237,-0.79284 0.81185,-12.75155 0.16237,0.46249 0.32474,-1.18927 0.32474,2.97316 0.48712,4.95527 0.32474,5.74811 0.16237,0.0661 0.16237,0.46249 0.16237,-0.39642 0.16237,-0.92499 0.81185,-8.25877 0.16237,-0.26428 0.48711,-5.28562 0.64949,4.09635 0.16237,2.37853 0.16237,-0.79284 0.16237,-2.11425 0.16237,0.19821 0.16237,-0.13214 0.16237,-0.72677 0.16237,1.58569 0.16237,0.46249 v 0"
           style="fill:none;stroke:#000000;stroke-width:1;stroke-linecap:square;stroke-linejoin:round;stroke-miterlimit:10;stroke-dasharray:none;stroke-opacity:0.6"
           transform="matrix(1.3333333,0,0,-1.3333333,0,295.68)"
           clip-path="url(#clipPath5)" />
      </g>
    </g>
    <path
       id="path6"
       d="m 30.436364,27.596238 2.035877,-6.996865 2.035877,-5.191223 2.035877,6.094044 2.035877,4.288402 2.035877,-0.902822 2.035878,1.128527 2.035877,0.752351 2.035877,0.526646 2.035877,2.482758 2.035877,2.783699 2.035877,-0.15047 4.071755,-8.351097 4.071754,-6.62069 2.035877,-0.827586 2.035877,0.15047 2.035878,-2.031348 2.035877,-0.225705 4.071754,7.523511 2.035877,3.08464 2.035877,3.68652 2.035878,0.827586 2.035877,-0.902821 2.035877,-1.278997 2.035877,-4.890282 2.035877,-3.761756 2.035877,-0.827586 2.035878,-4.438871 L 93.548556,9.615047 95.584433,7.734169 97.62031,4.8 l 2.035877,0.451411 2.035873,2.557993 2.03588,3.009405 2.03588,6.77116 2.03588,7.673981 4.07175,14.068965 2.03588,4.438872 4.07175,6.92163 2.03588,2.708464 2.03588,-1.278997 2.03587,-5.341693 4.07176,-8.727273 2.03587,-6.244514 2.03588,-2.557993 2.03588,2.181818 2.03588,0.526646 2.03587,-0.601881 2.03588,4.213166 6.10763,20.313479 2.03588,4.514107 2.03588,1.278997 2.03587,0.677116 2.03588,1.053291 2.03588,-0.30094 4.07175,-10.60815 2.03588,-2.557994 2.03588,-2.934169 2.03587,-2.106584 2.03588,-1.880877 2.03588,0.07523 2.03587,5.793103 2.03588,4.288402 2.03588,-0.150471 2.03588,0.752351 2.03587,2.482759 2.03588,4.890282 2.03588,7.0721 2.03587,4.815048 2.03588,0.827586 4.07176,2.031348 2.03587,-3.23511 2.03588,-4.965517 2.03588,-3.686521 2.03588,-1.730407 2.03587,-1.956113 2.03588,-5.567398 2.03588,-3.761756 2.03587,0.150471 2.03588,-1.354232 2.03588,-0.677116 2.03588,1.128526 4.07175,0.451411 2.03588,1.805643 2.03587,3.385579 2.03588,3.987461 2.03588,5.793104 2.03588,4.438871 2.03587,0.376176 2.03588,2.934169 2.03588,2.407524 2.03587,-3.536051 2.03588,-2.181818 2.03588,-1.880878 2.03588,-4.739811 2.03587,-2.181819 2.03588,-1.354232 2.03588,-3.460815 2.03587,-1.579937 2.03588,1.730408 2.03588,0.526645 2.03588,-2.106583 2.03587,0.601881 2.03588,4.589342 2.03588,6.695925 2.03587,7.824451 2.03588,3.987461 2.03588,-1.579937 2.03588,-3.159875 2.03587,-2.257053 2.03588,-1.429467 2.03588,-1.730408 2.03588,-3.009404 2.03587,-3.912226 2.03588,-4.288401 2.03588,-5.492163 2.03587,-4.890282 2.03588,-0.601881 2.03588,2.332288 2.03587,3.611285 2.03588,4.890282 2.03588,3.761756 2.03588,4.815047 2.03587,5.567398 2.03588,0.752351 2.03588,-1.278997 2.03587,3.009405 2.03588,7.448276 2.03588,5.567398 2.03588,-2.93417 2.03587,-6.620689 4.07176,-7.899687 2.03588,-6.846395 2.03587,-6.018809 2.03588,-1.579937 2.03588,-0.15047 2.03587,2.332288 2.03588,7.598746 2.03588,4.739812 2.03588,1.429467 2.03587,5.040753 2.03588,3.761755 2.03588,1.504702 6.10763,10.833856 2.03588,5.492163 2.03587,3.235105 2.03588,-2.181813 2.03588,-4.062696 2.03587,-2.106583 2.03588,-2.858934 2.03588,-4.514107 2.03588,-2.633229 2.03587,0.225706 2.03588,1.053291 2.03588,-0.225705 2.03587,-1.203762 2.03588,-2.257053 2.03588,-2.858934 2.03588,0.15047 2.03587,3.235109 2.03588,4.363637 2.03588,4.815047 2.03587,3.611285 2.03588,2.633229 2.03588,0.451411 2.03588,-1.805643 2.03587,-2.257053 2.03588,-4.965518 2.03588,-6.545454 2.03588,-4.514107 2.03587,-4.213166 2.03588,-3.53605 2.03588,-2.557994 2.03587,-1.880877 2.03588,2.106583 2.03588,3.310344 2.03587,0.526646 2.03588,2.557994 2.03588,5.642633 4.07175,10.231975 2.03588,4.739812 2.03588,3.159875 2.03587,2.181818 2.03588,-0.526646 2.03588,-2.858934 2.03588,-1.655173 2.03587,-2.407523 2.03588,-3.38558 2.03588,-1.730408 2.03588,-1.128526 2.03587,0.225705 2.03588,0.601881 2.03588,-0.225705 2.03587,0.978056 2.03588,-0.15047 2.03588,-1.504702 2.03588,1.128526 2.03587,3.310345 2.03588,2.858934 2.03588,0.150471 2.03587,-0.376176 2.03588,0.30094 2.03588,-2.181818 2.03588,-1.880877 2.03587,-1.354232 2.03588,-3.912226 2.03588,-3.310345 2.03587,-3.009404 2.03588,-2.708464 2.03588,0.30094 2.03588,0.15047 2.03587,-1.579937 2.03588,-1.053291 2.03588,1.730407 2.03588,1.880878 2.03587,-1.730408 2.03588,-1.278997 2.03588,1.053292 2.03587,0.677116 2.03588,0.902821 2.03588,-0.30094 2.03587,-1.730408 2.03588,-2.482758 2.03588,-3.53605 2.03588,-2.557994 2.03587,-2.332289 2.03588,-2.708464 2.03588,-3.009404 2.03587,-3.23511 2.03588,-1.128526 h 2.03588 l 2.03588,1.805642 2.03587,4.137931 2.03588,1.504703 2.03588,-0.225706 2.03587,1.429467 2.03588,1.730408 2.03588,1.504702 2.03588,-0.601881 2.03587,-0.902821 2.03588,1.203762 2.03588,-1.203762 2.03587,-3.761756 2.03588,-1.655172 2.03588,-0.902821 2.03588,-3.009405 2.03587,-4.288401 2.03588,-3.611285 2.03588,-2.557994 2.03588,-1.053292 2.03587,0.526646 2.03588,-0.526646 2.03588,-0.827586 2.03587,1.278997 2.03588,2.106583 2.03588,1.579937 2.03588,1.128527 2.03587,2.934169 2.03588,4.589342 2.03588,1.956113 2.03587,0.07523 2.03588,0.526646 2.03588,-0.451411 2.03588,-1.053291 2.03587,-2.106583 2.03588,-2.633229 2.03588,-1.655173 2.03587,-1.805642 2.03588,-1.203762 2.03588,-0.300941 2.03588,-2.407523 2.03587,-2.858934 2.03588,-0.752351 2.03588,1.128526 2.03587,1.278997 2.03588,0.451411 2.03588,1.805642 2.03588,2.708464 2.03587,-0.902821 2.03588,-2.407523 2.03588,0.225705 2.03587,-0.15047 2.03588,-0.827586 2.03588,1.805642 2.03588,0.526646 v 0"
       style="fill:none;stroke:#000000;stroke-width:1;stroke-linecap:square;stroke-linejoin:round;stroke-miterlimit:10;stroke-dasharray:none;stroke-opacity:1"
       transform="matrix(1.3333333,0,0,-1.3333333,0,299.6392)"
       clip-path="url(#clipPath7)" />
    <path
       style="fill:#000000;stroke-width:0.749268"
       id="path74"
       d="m 754.05805,48.266785 c 3.50912,0.09867 7.01896,0.121441 10.52849,0.151969 7.39456,0.04667 14.78909,0.05353 22.18365,0.07913 10.29905,0.03455 20.59794,0.115212 30.897,0.05375 2.88369,-0.02039 5.76724,-0.06047 8.64958,-0.210776 0.21846,0 0.21846,-5.21938 0,-5.21938 v 0 c -2.88234,-0.150306 -5.76589,-0.190367 -8.64958,-0.210777 -10.29906,-0.06146 -20.59795,0.0192 -30.897,0.05375 -7.39456,0.0256 -14.78909,0.03247 -22.18365,0.07913 -3.50953,0.03054 -7.01937,0.0533 -10.52849,0.151971 -0.21226,0 -0.21226,5.071234 0,5.071233 z" />
    <text
       xml:space="preserve"
       style="font-size:29.7129px;line-height:1.1;font-family:'Liberation Sans';-inkscape-font-specification:'Liberation Sans';text-align:justify;letter-spacing:0px;word-spacing:0px;fill:#000000;stroke-width:1.75032"
       x="728.86713"
       y="34.182167"
       id="text74"><tspan
         sodipodi:role="line"
         id="tspan74"
         x="728.86713"
         y="34.182167"
         style="stroke-width:1.75032">1 second</tspan></text>
    <path
       style="fill:#000000;stroke-width:1.43912"
       id="path72-1-0"
       d="m 7.7591907,145.99351 c -0.1198424,46.73785 -0.1198853,93.47635 -0.090909,140.21456 0,0.73575 5.8140673,0.73575 5.8140673,0 v 0 c 0.0291,-46.73821 0.0291,-93.47671 -0.09087,-140.21456 0,-0.71275 -5.6322923,-0.71275 -5.6322923,0 z" />
    <text
       xml:space="preserve"
       style="font-size:36.009px;line-height:1.1;font-family:'Liberation Sans';-inkscape-font-specification:'Liberation Sans';text-align:justify;letter-spacing:0px;word-spacing:0px;fill:#000000;stroke-width:2.1212"
       x="19.38571"
       y="198.05989"
       id="text72-4-6"><tspan
         sodipodi:role="line"
         id="tspan72-1-8"
         x="19.38571"
         y="198.05989"
         style="stroke-width:2.1212">160 V</tspan></text>
    <path
       style="fill:#000000;fill-opacity:1;stroke:none;stroke-width:20"
       id="path12"
       d="m 310.85341,37.772122 c 0,-5.803719 0,-11.607438 0,-17.411157 0,-0.212132 -3,-0.212132 -3,0 v 0 c 0,5.803719 0,11.607438 0,17.411157 0,0.212132 3,0.212132 3,0 z" />
    <path
       style="fill:#000000;fill-opacity:1;stroke:none;stroke-width:20"
       id="path12-0"
       d="m 373.61828,37.433981 c 0,-5.803719 0,-11.607438 0,-17.411157 0,-0.212132 -3,-0.212132 -3,0 v 0 c 0,5.803719 0,11.607438 0,17.411157 0,0.212132 3,0.212132 3,0 z" />
    <path
       style="fill:#000000;fill-opacity:1;stroke:none;stroke-width:20"
       id="path13"
       d="m 308.75341,23.149607 c 7.55831,-0.0082 15.11655,0.03925 22.67426,-0.06429 7.52362,-0.200772 15.0472,-0.373214 22.57367,-0.391665 5.70878,0.02628 11.41728,0.09186 17.12601,0.128062 0.54467,0.0023 1.08934,0.0047 1.63401,0.007 0.20529,0.05342 0.96076,-2.849902 0.75546,-2.903321 v 0 c -0.54282,-0.0019 -1.08564,-0.0037 -1.62846,-0.0056 -6.21367,-0.03676 -12.42704,-0.117557 -18.64084,-0.129941 -7.53428,0.02934 -15.06548,0.211451 -22.59727,0.397896 -7.54735,0.09076 -15.09511,0.04863 -22.64291,0.05606 -0.20547,0.05275 0.5406,2.958504 0.74607,2.905749 z" />
    <text
       xml:space="preserve"
       style="font-weight:bold;font-size:37.3333px;line-height:1.1;font-family:'Liberation Sans';-inkscape-font-specification:'Liberation Sans Bold';text-align:justify;letter-spacing:0px;word-spacing:0px;fill:#000000;fill-opacity:1;stroke:none;stroke-width:20"
       x="391.24109"
       y="34.994732"
       id="text14"><tspan
         sodipodi:role="line"
         id="tspan14"
         x="391.24109"
         y="34.994732">Sleep spindle</tspan></text>
  </g>
</svg>
